<svg viewBox="0 0 937.5 1000" xmlns="http://www.w3.org/2000/svg"><path fill="currentColor" d="M0 500q0 -95 37 -182t100 -149t149 -100t183 -37q95 0 182 37t149 100t100 149t37 182q0 95 -37 182t-100 150t-149 100t-182 37q-96 0 -183 -37t-149 -100t-100 -150t-37 -182zm117 0q0 96 47 177t128 128t177 47q95 0 176 -47t128 -128t47 -177q0 -95 -47 -176t-128 -128t-176 -47q-72 0 -137 28t-112 75t-75 112t-28 136zm271 -196q-4 -36 19 -63t58 -31q35 -3 62 19t31 58q1 9 0 17l-27 244q-2 24 -21 39t-43 13q-21 -2 -36 -17t-17 -35zm11 411q0 -31 22 -52q20 -20 52 -20t51 20q22 21 22 52t-22 52q-20 22 -52 22q-30 0 -51 -22q-22 -21 -22 -52z" /></svg>