<svg viewBox="0 0 928 1000" xmlns="http://www.w3.org/2000/svg"><path fill="currentColor" d="M744 165l167 0l0 782l-893 0l0 -782l168 0l0 56q0 46 33 79t79 33t78 -33t33 -79l0 -56l112 0l0 56q0 46 33 79t79 33t78 -33t33 -79l0 -56zm-446 669l0 -111l-112 0l0 111l112 0zm0 -223l0 -112l-112 0l0 112l112 0zm223 223l0 -111l-112 0l0 111l112 0zm0 -223l0 -112l-112 0l0 112l112 0zm111 223l112 -111l-112 0l0 111zm112 -223l0 -112l-112 0l0 112l112 0zm-503 -391l0 -112q0 -23 17 -39t40 -16t40 16t15 39l0 112q0 24 -16 40t-39 16q-24 0 -40 -16t-17 -40zm335 0l0 -112q0 -23 16 -39t40 -16q23 0 40 16t16 39l0 112q0 24 -16 40t-39 16t-40 -16t-17 -40z" /></svg>