<svg viewBox="0 0 937.5 1000" xmlns="http://www.w3.org/2000/svg"><path fill="currentColor" d="M0 500q0 -95 37 -182t100 -149t150 -100t182 -37t182 37t149 100t100 149t37 182t-37 182t-100 150t-149 100t-182 37t-182 -37t-150 -100t-100 -150t-37 -182zm261 155q0 22 15 38q15 15 37 15q22 0 37 -15l119 -119l118 119q15 15 37 15q22 0 37 -15q15 -16 15 -38t-15 -37l-118 -118l118 -119q15 -15 15 -37t-15 -37t-37 -15t-37 15l-118 119l-119 -119q-15 -15 -37 -15t-37 15q-15 15 -15 37t15 37l118 119l-118 118q-15 15 -15 37z" /></svg>