<svg viewBox="0 0 928 1000" xmlns="http://www.w3.org/2000/svg"><path fill="currentColor" d="M743 394q74 14 121 68t47 149q0 113 -65 168t-158 55l-112 0q-46 0 -79 34t-33 79q-92 0 -157 -66t-66 -158l0 -112q0 -29 6 -56l106 0q2 0 5 1t4 1q-9 23 -9 54l0 112q0 56 44 88q67 -88 179 -88l112 0q111 0 111 -112q0 -96 -80 -109q21 -48 24 -108zm-279 -229l-223 0q-39 0 -64 11t-34 33t-11 35t-2 32q0 112 111 112l112 0q111 0 179 89q44 -33 44 -89l0 -112q0 -65 -34 -88t-78 -23zm0 -112q92 0 158 58t66 165l0 112q0 92 -65 158t-159 65q0 -46 -33 -79t-78 -33l-112 0q-93 0 -158 -55t-65 -168q0 -114 65 -168t158 -55l223 0z" /></svg>