<svg viewBox="0 0 1000 1000" xmlns="http://www.w3.org/2000/svg"><path fill="currentColor" d="M498 0c-147 1 -291 67 -387 186l154 237c39 -111 150 -182 267 -170l414 22c-42 -84 -108 -157 -196 -208c-79 -46 -166 -67 -252 -67zm-416 226c-52 79 -82 173 -82 274c0 250 183 457 423 494l128 -252c-116 22 -233 -39 -281 -146l-188 -370zm885 94l-282 15c76 89 82 221 13 317l-226 347c94 6 190 -15 278 -66c216 -125 304 -387 217 -613zm-467 11c-93 0 -169 76 -169 169s76 169 169 169s169 -76 169 -169s-76 -169 -169 -169z" /></svg>