<svg viewBox="0 0 937.5 1000" xmlns="http://www.w3.org/2000/svg"><path fill="currentColor" d="M0 498q0 -38 7 -83q50 4 95 -19t70 -68q25 -45 23 -95t-30 -91q64 -56 150 -86q23 41 64 66t90 24t89 -24t64 -66q85 30 150 86q-21 39 -21 85t23 86q24 41 65 64t87 23q11 49 11 98q0 32 -7 74q-45 1 -84 25t-63 63q-25 44 -23 92t26 89q-66 60 -145 93q-23 -42 -64 -67t-90 -25q-53 0 -96 28t-64 74q-82 -26 -153 -82q28 -41 30 -91t-23 -95q-27 -46 -74 -70t-98 -17q-9 -41 -9 -91zm293 0q0 73 51 124t125 51t124 -51t51 -124t-51 -124t-124 -52t-125 52t-51 124z" /></svg>