<?xml version="1.0" ?><!DOCTYPE svg  PUBLIC '-//W3C//DTD SVG 1.1//EN'  'http://www.w3.org/Graphics/SVG/1.1/DTD/svg11.dtd'><svg enable-background="new 0 0 24 24" height="24px" id="Layer_1" version="1.1" viewBox="0 0 24 24" width="24px" xml:space="preserve" xmlns="http://www.w3.org/2000/svg" xmlns:xlink="http://www.w3.org/1999/xlink"><g><path d="M21,2.8H3c-1.4,0-2.5,1.1-2.5,2.5v10c0,1.4,1.1,2.5,2.5,2.5h2v3c0,0.2,0.1,0.4,0.3,0.4c0.1,0,0.1,0,0.2,0   c0.1,0,0.3-0.1,0.4-0.2l2.9-3.3H21c1.4,0,2.5-1.1,2.5-2.5v-10C23.5,3.9,22.4,2.8,21,2.8z M6.9,10.2c-0.7,0-1.2-0.5-1.2-1.2   c0-0.7,0.5-1.2,1.2-1.2S8.1,8.3,8.1,9C8.1,9.6,7.6,10.2,6.9,10.2z M12.4,13.5c-0.1,0-0.2,0-0.3,0c-1,0-1.8-0.7-1.9-1.7   c0-0.1,0-0.3,0.1-0.4c0.1-0.1,0.2-0.2,0.3-0.2l2.9-0.4c0.1,0,0.3,0,0.4,0.1c0.1,0.1,0.2,0.2,0.2,0.3C14.2,12.4,13.5,13.4,12.4,13.5   z M17.1,10.2c-0.7,0-1.2-0.5-1.2-1.2c0-0.7,0.5-1.2,1.2-1.2s1.2,0.5,1.2,1.2C18.3,9.6,17.7,10.2,17.1,10.2z"/></g></svg>