<svg viewBox="0 0 853 1000" xmlns="http://www.w3.org/2000/svg"><path fill="currentColor" d="M419 28c-39 0 -71 32 -71 72c0 40 32 72 71 72c39 0 74 -32 74 -72c0 -40 -35 -72 -74 -72zm-48 222c-40 119 -101 151 -101 151s-52 -145 -109 -231c-23 52 -47 86 -96 100c-1 44 51 208 55 290l601 0c2 -79 55 -256 55 -288c-38 -16 -85 -51 -96 -102c-63 86 -109 231 -109 231s-61 -32 -101 -151c-27 13 -77 13 -99 0zm-297 -222c-40 0 -74 32 -74 72c0 40 34 72 74 72c39 0 70 -32 70 -72c0 -40 -31 -72 -70 -72zm47 603l0 119l230 0l0 -110l370 0l0 -9zm644 -603c-40 0 -72 32 -72 72c0 40 32 72 72 72c40 0 72 -32 72 -72c0 -40 -32 -72 -72 -72zm-342 816c0 -32 0 -106 0 -143c123 0 152 0 430 0c0 46 0 105 0 143c-113 0 -333 0 -430 0z" /></svg>