<svg viewBox="0 0 853 1000" xmlns="http://www.w3.org/2000/svg"><path fill="currentColor" d="M419 28c-39 0 -71 32 -71 72c0 40 32 72 71 72c39 0 74 -32 74 -72c0 -40 -35 -72 -74 -72zm-48 222c-40 119 -101 151 -101 151s-52 -145 -109 -231c-23 52 -47 86 -96 100c-1 44 51 208 55 290l362 0l0 -72l248 0c5 -72 35 -158 46 -216c-38 -16 -85 -51 -96 -102c-63 86 -109 231 -109 231s-61 -32 -101 -151c-27 13 -77 13 -99 0zm-297 -222c-40 0 -74 32 -74 72c0 40 34 72 74 72c39 0 70 -32 70 -72c0 -40 -31 -72 -70 -72zm47 603l0 119l230 0l0 -110l131 0l0 -9zm644 -603c-40 0 -72 32 -72 72c0 40 32 72 72 72c40 0 72 -32 72 -72c0 -40 -32 -72 -72 -72zm-196 816c-37 0 -107 0 -146 0c0 -31 0 -102 0 -138c49 0 94 0 146 0c0 -49 0 -98 0 -146c24 0 85 0 138 0c0 46 0 95 0 146c46 0 93 0 146 0c0 45 0 101 0 138c-43 0 -98 0 -146 0c0 48 0 103 0 146c-52 0 -99 0 -138 0c0 -52 0 -123 0 -146z" /></svg>