<svg viewBox="0 0 774 1000" xmlns="http://www.w3.org/2000/svg"><path fill="currentColor" d="M664 50c-61 0 -110 65 -110 144c0 80 49 145 110 145c60 0 110 -65 110 -145c0 -79 -50 -144 -110 -144zm-343 98l-267 0c-30 0 -54 24 -54 54c0 30 24 54 54 54l267 0c30 0 54 -24 54 -54c0 -30 -24 -54 -54 -54zm-262 361c-6 0 -13 1 -19 3c-27 10 -41 41 -31 68c46 127 136 228 249 289c22 12 45 22 69 31c58 21 120 33 184 33c57 0 113 -9 166 -27c10 -3 20 -7 30 -11c11 -4 22 -8 31 -12l0 -1l0 0l0 0c26 -12 38 -44 25 -71c-13 -26 -44 -37 -70 -25l0 0c-9 4 -17 8 -24 11c-8 3 -17 6 -25 8c-43 14 -88 22 -133 22c-51 0 -101 -10 -148 -27c-19 -7 -37 -15 -55 -25c-90 -48 -163 -130 -200 -231c-8 -21 -28 -35 -49 -35z" /></svg>