<svg viewBox="0 0 824 1000" xmlns="http://www.w3.org/2000/svg"><path fill="currentColor" d="M174 50c-61 0 -110 65 -110 144c0 80 49 145 110 145s110 -65 110 -145c0 -79 -49 -144 -110 -144zm476 0c-60 0 -109 65 -109 144c0 80 49 145 109 145c61 0 110 -65 110 -145c0 -79 -49 -144 -110 -144zm121 560l-718 1c-29 0 -53 24 -53 53c0 30 24 54 53 54l140 0l0 74c0 55 20 108 60 148c46 47 103 60 165 60c57 0 111 -17 153 -59c41 -41 60 -94 60 -150l0 -74l140 0c29 0 53 -24 53 -53c0 -30 -24 -54 -53 -54zm-471 109l224 0l0 72c0 27 -7 53 -28 74c-39 39 -129 39 -168 0c-20 -21 -28 -45 -28 -73l0 -73z" /></svg>