<svg viewBox="0 0 1000 1000" xmlns="http://www.w3.org/2000/svg"><path fill="currentColor" d="M53 112c-20 0 -39 11 -48 30c-13 26 -1 58 25 71l152 80c-3 46 8 93 34 128c21 29 52 49 88 49c90 0 126 -107 121 -179c-120 -53 -232 -115 -349 -174c-7 -4 -15 -5 -23 -5zm894 0c-8 0 -16 1 -23 5c-117 59 -229 121 -349 174c-5 72 31 179 121 179c36 0 67 -20 88 -49c25 -35 37 -82 34 -128l152 -80c26 -13 37 -45 25 -71c-10 -19 -29 -30 -48 -30zm-453 537c-165 0 -330 62 -461 184l-2 3c-6 5 -11 10 -15 14c-21 21 -21 55 -1 76c21 21 54 21 75 1l12 -12l3 -3c112 -105 254 -157 396 -155c143 1 286 56 396 165c4 4 8 8 12 12c21 21 54 21 75 1c21 -21 21 -55 0 -77c-4 -5 -9 -10 -14 -14c-130 -129 -299 -194 -468 -195c-3 0 -5 0 -8 0z" /></svg>