<svg viewBox="0 0 1673 1000" xmlns="http://www.w3.org/2000/svg"><path fill="currentColor" d="M1234 0c-17 0 -34 8 -44 23c-54 80 -24 144 4 204c13 29 26 56 5 72c-23 17 -28 51 -10 74c17 23 51 28 74 10c89 -67 60 -131 27 -201c-15 -33 -32 -70 -12 -99c16 -25 10 -57 -14 -74c-9 -6 -20 -9 -30 -9zm-1021 121c-81 0 -157 39 -203 105c-18 25 -12 59 14 77c24 17 59 11 76 -14c45 -63 132 -76 193 -32l0 0c3 2 7 5 11 9l1 0l1 2c3 3 7 7 10 10l1 1l0 1l0 0l1 1l1 0c20 23 55 25 78 4c22 -20 24 -55 4 -77c-46 -55 -116 -87 -188 -87zm499 0c-80 0 -156 39 -202 105c-18 25 -12 59 13 77c25 17 59 11 77 -14c44 -63 131 -76 192 -32l0 0c4 2 8 5 12 9l0 0l1 2c4 3 7 7 11 10l1 1l0 1l0 0l1 1l0 0c20 23 55 25 78 4c23 -20 25 -55 4 -77c-46 -55 -116 -87 -188 -87zm206 346c-24 0 -44 19 -44 43l1 4l-1 275l0 0l0 0l0 0c0 58 24 111 62 149l0 0l0 0l0 0c38 38 91 62 148 62l0 0l226 0c1 0 3 0 5 0c13 -1 27 -2 39 -5c15 -4 29 -8 42 -14c55 -26 97 -74 114 -133l31 0l0 0c37 0 70 -15 94 -39c23 -23 38 -56 38 -92l0 0l0 0l0 -119l0 0c0 -36 -15 -69 -39 -93l0 0c-23 -23 -56 -38 -92 -38l0 0l0 0l-624 0zm604 100c11 0 21 5 28 12l1 0l0 0c7 8 12 18 12 29l0 0l0 110l0 0c0 11 -5 21 -12 29c-8 7 -18 12 -29 12l0 0l-62 0l0 0c-21 0 -39 16 -40 36c-4 42 -31 77 -67 94c-7 3 -15 6 -22 8c-7 1 -14 2 -21 2l-3 0l-209 0l0 1c-30 -1 -59 -13 -79 -34l-1 0c-21 -21 -34 -50 -34 -81l0 0l0 0l0 0l1 -218l537 0l0 0zm-82 55l0 96l32 0c22 0 39 -17 39 -38l0 -20c0 -21 -17 -38 -39 -38l-32 0zm-1131 12c-30 0 -55 25 -55 55s25 55 55 55l297 0c30 0 54 -25 54 -55s-24 -55 -54 -55l-297 0z" /></svg>