<svg viewBox="0 0 696 1000" xmlns="http://www.w3.org/2000/svg"><path fill="currentColor" d="M110 1c-61 0 -110 65 -110 144c0 80 49 145 110 145s109 -65 109 -145c0 -79 -49 -144 -109 -144zm476 0c-60 0 -109 65 -109 144c0 80 49 145 109 145c61 0 110 -65 110 -145c0 -79 -49 -144 -110 -144zm-255 432l0 0c-56 0 -107 23 -143 59c-37 37 -60 88 -60 144l0 0l0 162l0 0c0 56 23 106 59 143c37 37 88 60 144 60l0 0l34 0l0 0c56 0 107 -23 143 -60c37 -36 60 -87 60 -143l0 0l0 -162l0 0c0 -56 -23 -107 -59 -143c-37 -37 -88 -60 -144 -60l0 0l-34 0zm0 107l0 0l34 0l0 0c26 0 50 11 67 28c18 18 29 42 29 68l0 0l0 162l0 0c0 26 -11 50 -28 67c-18 18 -42 29 -68 29l0 -1l-34 0l0 1c-26 0 -50 -11 -68 -29c-17 -17 -28 -41 -28 -67l0 0l0 -162l0 0c0 -26 11 -50 28 -67c18 -18 42 -29 68 -29z" /></svg>