<svg viewBox="0 0 999 1000" xmlns="http://www.w3.org/2000/svg"><path fill="currentColor" d="M261 50c-60 0 -109 65 -109 144c0 80 49 145 109 145s110 -65 110 -145c0 -79 -49 -144 -110 -144zm477 0c-61 0 -110 65 -110 144c0 80 49 145 110 145c60 0 110 -65 110 -145c0 -79 -50 -144 -110 -144zm-244 599c-165 0 -331 62 -461 184l-3 3c-6 5 -11 10 -14 14c-21 21 -21 55 -1 76c21 21 54 21 75 1l12 -12l3 -3c111 -105 254 -157 396 -155c143 1 285 56 396 165c4 4 8 8 12 12c20 21 54 21 74 1c21 -21 21 -55 1 -77c-5 -5 -9 -10 -14 -14c-131 -129 -299 -194 -468 -195c-3 0 -6 0 -8 0z" /></svg>