<svg viewBox="0 0 1789 1000" xmlns="http://www.w3.org/2000/svg"><path fill="currentColor" d="M1364 0c-29 0 -59 7 -86 20c-4 2 -8 4 -12 7c-38 22 -37 12 -80 14c-32 1 -62 12 -89 29c-26 16 -49 39 -65 64c-16 27 -26 58 -25 89c1 26 23 46 49 46l0 1l619 0c26 0 48 -22 48 -48c3 -32 -7 -64 -24 -91c-15 -24 -36 -45 -60 -61c-25 -15 -53 -26 -82 -29c-21 -2 -42 0 -62 6c-3 -3 -7 -5 -10 -8c-36 -26 -79 -39 -121 -39zm-695 47c-61 0 -111 65 -111 145c0 80 50 145 111 145c60 0 110 -65 110 -145c0 -80 -50 -145 -110 -145zm695 50c29 -1 60 12 83 37c15 19 42 24 63 11c11 -7 24 -9 37 -8c14 2 28 7 40 15c9 5 17 13 24 21l-487 0c7 -8 15 -16 24 -22c13 -8 28 -13 42 -14c10 0 21 2 31 8c19 13 46 9 62 -9c21 -25 51 -39 81 -39zm-1041 49l-269 0c-30 0 -54 24 -54 54c0 30 24 54 54 54l269 0c30 0 54 -24 54 -54c0 -30 -24 -54 -54 -54zm727 190c-23 0 -42 19 -42 42l0 4l-1 412l0 0l0 0l0 0c0 57 24 108 61 145l0 0l0 1l0 0c37 37 89 60 145 60l0 0l220 0c2 0 4 0 5 0c14 -1 27 -2 39 -5c14 -3 28 -8 41 -14c53 -25 95 -72 112 -129l30 0l0 -1c35 0 68 -14 91 -38c23 -23 38 -55 38 -90l0 0l0 0l0 -1l0 -257l0 0l0 0c0 -36 -15 -68 -38 -91l0 -1c-23 -23 -55 -37 -91 -37l0 0l0 0l-610 0zm591 98c11 0 21 5 28 12l0 0l0 0c7 7 12 17 12 28l0 0l0 0l0 250l0 0l0 0c0 11 -5 21 -12 28c-7 8 -17 12 -28 12l0 0l-61 0l0 0c-20 0 -37 16 -39 36c-4 41 -30 75 -65 92c-7 3 -15 5 -22 7c-7 2 -14 2 -21 3l-2 0l-204 0l0 0c-30 0 -58 -13 -78 -33l-1 0c-20 -21 -33 -49 -33 -79l0 0l0 0l0 0l1 -356l102 0l0 349c0 35 69 33 69 0l0 -349l102 0l0 353c0 36 69 34 69 0l0 -353l183 0l0 0zm-80 60l0 208l32 0c20 0 37 -17 37 -37l0 -133c0 -21 -17 -38 -37 -38l-32 0zm-1502 15c-6 0 -12 1 -18 4c-28 10 -43 40 -32 68c46 127 137 229 251 291c22 12 45 22 69 31c58 21 121 33 186 33l0 0l0 0l0 0c57 0 113 -9 167 -27c10 -3 20 -7 30 -11c11 -4 22 -8 31 -13l0 0l0 0l0 0c27 -13 38 -45 25 -71c-12 -27 -44 -38 -70 -26l0 0c-9 4 -17 8 -25 11c-8 3 -16 6 -25 9c-43 14 -88 21 -133 21l0 0l0 0l0 0c-52 0 -102 -9 -149 -27c-19 -7 -38 -15 -55 -25c-92 -49 -165 -131 -202 -232c-8 -22 -28 -36 -50 -36z" /></svg>