<svg viewBox="0 0 999 1000" xmlns="http://www.w3.org/2000/svg"><path fill="currentColor" d="M261 50c-60 0 -109 65 -109 144c0 80 49 145 109 145s110 -65 110 -145c0 -79 -49 -144 -110 -144zm343 98c-29 0 -54 24 -54 54c0 30 25 54 54 54l267 0c30 0 54 -24 54 -54c0 -30 -24 -54 -54 -54l-267 0zm342 501c-13 0 -27 5 -37 16c-4 4 -8 8 -12 12c-111 109 -253 164 -396 165c-142 2 -285 -50 -396 -155l-3 -3l-12 -12c-21 -21 -54 -20 -75 1c-20 21 -20 55 1 76c3 4 8 8 14 14l3 3c132 124 301 186 469 184c169 -1 337 -67 468 -195c5 -5 9 -10 14 -14c20 -22 20 -56 -1 -77c-10 -10 -23 -15 -37 -15z" /></svg>