<svg viewBox="0 0 999 1000" xmlns="http://www.w3.org/2000/svg"><path fill="currentColor" d="M489 9c-115 0 -229 10 -322 30c-103 21 -166 57 -167 102l0 0l0 0l0 0c1 45 64 81 167 102l0 0c190 40 475 40 665 0c103 -21 167 -57 167 -102l1 0l0 0l-1 0c0 -45 -64 -81 -167 -102l0 0c-98 -21 -221 -31 -343 -30zm11 89c193 0 350 19 350 43c0 24 -157 43 -350 43c-194 0 -351 -19 -351 -43c0 -24 157 -43 351 -43zm-334 359c-30 0 -54 24 -54 54s24 54 54 54l186 0c30 0 54 -24 54 -54c0 -30 -24 -54 -54 -54l-186 0zm482 0c-30 0 -54 24 -54 54s24 54 54 54l186 0c30 0 54 -24 54 -54c0 -30 -24 -54 -54 -54l-186 0zm151 301c-13 1 -27 6 -37 16c-1 1 -1 2 -2 2c-10 11 -20 21 -31 30c-10 9 -22 18 -34 26c-62 41 -135 62 -211 58l0 1c-46 -2 -92 -14 -134 -33c-7 -4 -14 -7 -20 -10c-33 -19 -64 -43 -91 -72c-20 -22 -54 -23 -75 -3c-22 20 -23 53 -3 75c34 37 74 68 119 93c8 5 17 9 26 13c54 25 113 40 174 42l0 1c98 4 193 -23 273 -76c16 -11 31 -22 45 -34c14 -12 28 -25 40 -39c20 -21 20 -54 -1 -74c-10 -11 -24 -16 -38 -16z" /></svg>