<svg viewBox="0 0 851 1000" xmlns="http://www.w3.org/2000/svg"><path fill="currentColor" d="M278 63c-7 0 -15 2 -23 5l-128 62l-80 38c-2 1 -4 2 -6 3c-1 5 -1 11 -1 16l0 0l0 1l0 0c0 69 40 162 122 162l0 0l0 0l0 0c34 0 65 -18 87 -49c26 -35 37 -82 34 -128l18 -9c27 -12 38 -44 25 -71c-9 -19 -28 -30 -48 -30zm212 0c-20 0 -39 11 -48 30c-13 27 -1 59 25 71l18 9c-3 46 9 93 34 128c22 31 53 49 87 49l0 0l1 0l0 0c82 0 121 -93 122 -162l0 0l0 -1l0 0c0 -5 -1 -11 -1 -16c-2 -1 -5 -2 -7 -3l-80 -38l-128 -62c-7 -3 -15 -5 -23 -5zm279 302c-7 0 -15 5 -21 16c-42 72 -96 259 27 259c123 -1 73 -182 16 -261c-6 -8 -14 -13 -22 -14zm-512 138c-57 0 -112 9 -166 26c-10 4 -20 7 -30 11c-11 5 -21 9 -30 13l0 0l-1 1l0 0c-26 12 -37 44 -25 70c13 26 44 38 70 25l0 1c9 -5 17 -8 24 -11c9 -3 17 -6 25 -9c43 -14 88 -21 133 -21c51 0 101 9 148 27c19 7 37 15 55 24c91 49 163 130 200 232c10 27 40 41 68 31c27 -10 42 -40 32 -67c-46 -127 -137 -228 -250 -289c-22 -12 -45 -22 -69 -31c-57 -21 -120 -33 -184 -33z" /></svg>