<svg viewBox="0 0 990 1000" xmlns="http://www.w3.org/2000/svg"><path fill="currentColor" d="M495 105c-154 0 -309 0 -463 0c-18 0 -32 15 -32 33c3 152 129 306 278 309c84 1 164 -36 218 -95c55 59 135 96 219 95c149 -3 272 -157 275 -309c0 -18 -14 -33 -32 -33c-155 0 -309 0 -463 0zm319 510c-18 0 -35 9 -45 25l0 0c0 1 -1 2 -1 3c-7 12 -15 23 -24 34c-10 12 -19 23 -29 32c-54 51 -126 80 -203 80l0 0l0 0c-21 0 -43 -2 -64 -7c-3 -1 -6 -1 -10 -2c-17 -5 -34 -11 -51 -19c-26 -12 -58 -1 -70 26c-13 27 -1 58 25 71c22 10 45 18 69 24c5 1 9 2 14 4c29 6 58 9 87 9l0 0l0 0c104 0 201 -39 275 -108c15 -14 28 -29 40 -44c11 -14 22 -30 32 -47c0 0 1 -1 1 -1c15 -25 7 -58 -18 -73c-9 -5 -18 -8 -28 -7z" /></svg>