<svg viewBox="0 0 1447 1000" xmlns="http://www.w3.org/2000/svg"><path fill="currentColor" d="M744 0c-60 0 -109 64 -109 143c0 79 49 143 109 143c60 0 108 -64 108 -143c0 -79 -48 -143 -108 -143zm-602 80c-29 0 -53 24 -53 54s24 53 53 53l290 0c30 0 54 -24 54 -53s-24 -53 -54 -53l-290 -1zm1040 21c-16 0 -34 2 -54 7c-112 51 -109 174 -93 266l-131 0c-68 0 -124 53 -124 123c0 34 8 71 30 98c-10 11 -18 24 -23 38c-18 48 -10 106 23 144c-5 6 -18 27 -18 27c-29 57 -10 144 46 179c17 11 38 17 64 17l378 0c91 -3 167 -76 167 -169l0 -287c0 -49 -30 -108 -49 -151c-25 -58 -49 -116 -73 -174c-30 -72 -71 -118 -143 -118zm3 115c30 -1 42 48 51 67c21 52 42 129 64 181c21 47 38 88 38 104l0 255c0 41 -36 72 -76 74l-332 0c-17 0 -26 -9 -30 -24c-5 -15 -7 -34 4 -47c6 -8 16 -13 26 -13c21 1 39 -17 39 -38c0 -21 -17 -37 -38 -37c-9 0 -18 -4 -24 -11c-15 -16 -16 -50 0 -65c3 -4 7 -6 12 -8c4 -1 8 -2 12 -2c20 0 38 -17 38 -38c0 -21 -17 -38 -38 -38c-28 0 -34 -28 -34 -50c0 -12 7 -23 17 -29c-1 -2 189 -4 210 -4c27 0 47 -30 33 -55c-27 -51 -45 -207 22 -221c2 -1 4 -1 6 -1zm-1133 264c-7 0 -14 1 -20 4c-27 12 -39 44 -27 71c66 148 194 254 344 297c29 8 59 14 90 17c30 3 61 4 91 2l3 0l2 0c30 -3 52 -28 50 -58c-2 -29 -28 -51 -58 -49l-2 0l-1 0c-25 2 -50 1 -74 -1c-24 -3 -48 -8 -72 -14c-120 -34 -222 -120 -276 -238c-9 -20 -29 -32 -50 -31z" /></svg>