<svg viewBox="0 0 1000 1000" xmlns="http://www.w3.org/2000/svg"><path fill="currentColor" d="M111 0c-1 0 -3 0 -5 0c-1 0 -2 0 -3 1l0 0c-1 0 -2 0 -3 0c-1 0 -1 0 -1 0c-8 2 -17 7 -24 12c-2 1 -3 2 -5 4c-1 1 -2 2 -4 3l0 0l0 0l0 0l0 0c-11 11 -20 22 -28 34c-2 2 -3 5 -5 7c-1 2 -3 4 -4 7l0 0l0 0l0 0c-7 12 -12 24 -17 37c-1 3 -1 6 -2 8c-1 2 -1 5 -2 8l0 0c-17 65 -5 136 18 188c5 10 10 19 15 28c5 8 11 16 16 23l1 0l0 0l0 0l0 0c5 6 12 9 20 10c7 1 15 -2 21 -7l0 0c1 -1 3 -2 4 -4l0 0c0 0 0 0 0 0c0 -1 1 -1 1 -1c4 -5 7 -10 11 -15l3 -3l2 -3l0 0c4 -5 8 -9 12 -14l3 -2l2 -3l0 0l0 0l0 0l0 0c22 -24 47 -44 74 -62c5 -4 11 -7 16 -10c5 -3 10 -6 16 -9c0 -1 0 -1 1 -1c7 -4 12 -10 14 -17c2 -8 1 -16 -3 -23l0 0c-2 -5 -6 -8 -11 -11l0 0l0 0c0 0 -1 -1 -1 -1c-1 0 -1 0 -1 0c-1 -1 -2 -1 -3 -2l0 0l0 0l0 0l0 0c-7 -2 -13 -5 -20 -8c-1 0 -2 -1 -3 -2l-3 -1c0 0 -1 -1 -1 -1l0 0c-5 -3 -11 -6 -16 -10c0 0 -1 -1 -2 -2l-2 -2c-1 0 -1 0 -1 0l0 0l0 0l0 0c-23 -19 -36 -42 -40 -67c0 -4 -1 -9 -1 -14c0 -5 0 -10 1 -14l0 0l0 -1c2 -10 2 -18 0 -25c0 -2 -1 -3 -1 -5c0 -1 -1 -3 -1 -4l-1 0l0 0l0 0c-3 -8 -8 -14 -14 -19c-1 -1 -3 -1 -4 -2c-1 -1 -3 -2 -4 -2l0 0l0 0c-5 -2 -10 -3 -15 -3zm777 0c-5 0 -10 1 -14 3l0 0l0 0c-2 0 -3 1 -4 2c-2 1 -3 1 -4 2c-6 5 -11 11 -15 19l0 0l0 0l0 0c0 1 -1 3 -1 4c-1 2 -1 3 -1 5c-2 7 -2 15 0 25l0 1l0 0c0 4 1 9 1 14c0 5 -1 10 -1 14c-4 25 -18 48 -40 67l0 0l0 0l0 0c-1 0 -1 0 -1 0l-2 2c-1 1 -2 2 -3 2c-5 4 -10 7 -15 10l0 0c-1 0 -1 1 -1 1l-3 1c-1 1 -3 2 -4 2c-6 3 -12 6 -19 8l0 0l0 0l0 0l0 0c-1 1 -2 1 -3 2c0 0 -1 0 -1 0c-1 0 -1 1 -2 1l0 0l0 0c-4 3 -8 6 -10 11l-1 0c-3 7 -4 15 -2 23c2 7 7 13 14 17c1 0 1 0 1 1c6 3 11 6 16 9c5 3 10 6 16 10c27 18 51 38 74 62l0 0l0 0l0 0l0 0l2 3l3 2c4 5 8 9 12 14l0 0l2 3l2 3c4 5 8 10 12 15c0 0 0 0 1 1c0 0 0 0 0 0l0 0c1 2 2 3 4 4l0 0c6 5 14 8 21 7c7 -1 15 -4 20 -10l0 0l0 0l0 0l0 0c6 -7 11 -15 17 -23c5 -9 10 -18 14 -28c23 -52 36 -123 19 -188l0 0c-1 -3 -2 -6 -2 -8c-1 -2 -2 -5 -3 -8c-4 -13 -9 -25 -16 -37l0 0l0 0l0 0c-2 -3 -3 -5 -4 -7c-2 -2 -3 -5 -5 -7c-8 -12 -17 -23 -28 -34l0 0l0 0l-1 0l0 0c-1 -1 -2 -2 -4 -3c-1 -2 -2 -3 -4 -4c-8 -5 -16 -10 -24 -12c0 0 -1 0 -1 0c-1 0 -2 0 -3 0l0 0c-1 -1 -2 -1 -4 -1c-1 0 -3 0 -5 0zm-666 388l-1 2l0 0c-46 63 -46 164 0 227c22 30 53 49 87 49l0 0l1 0l0 0c82 0 122 -94 122 -162l0 0l0 -1l0 0c0 -6 0 -11 -1 -16c-2 -1 -4 -2 -7 -4l-201 -95zm556 0l-202 95c-2 2 -4 3 -6 4c-1 5 -1 10 -1 16l0 0l0 1l0 0c0 68 40 162 122 162l0 0l0 0l0 0c35 0 65 -19 87 -49c46 -63 47 -164 0 -227l1 0l-1 -2zm21 374c-13 0 -27 5 -37 15l0 0c-1 1 -1 2 -2 3c-10 10 -20 20 -31 29c-10 9 -22 18 -34 26c-62 41 -135 62 -210 58l0 0l0 1c-47 -2 -93 -14 -135 -33c-7 -4 -14 -7 -20 -10c-33 -19 -64 -43 -91 -72c-20 -22 -53 -23 -75 -3c-22 20 -23 53 -3 75c34 37 74 69 119 93c9 5 17 9 26 13c54 25 113 40 174 42l0 1l0 0c98 4 193 -23 273 -76c16 -10 31 -22 45 -34c14 -12 28 -25 40 -39c20 -21 20 -54 -1 -74c-10 -11 -24 -16 -38 -15z" /></svg>