<svg viewBox="0 0 893 1000" xmlns="http://www.w3.org/2000/svg"><path fill="currentColor" d="M206 108c-77 0 -151 39 -196 103c-17 24 -11 57 13 74c24 17 58 12 75 -13c43 -61 127 -74 186 -31l0 0c4 2 8 5 11 9l1 0l1 1c3 3 7 7 10 11l1 1l0 0l0 0l1 1l0 0c20 22 54 24 76 4c22 -19 24 -53 4 -75c-45 -53 -112 -85 -183 -85zm486 0c-78 0 -152 39 -197 103c-17 24 -11 57 13 74c24 17 58 12 75 -13c43 -61 127 -74 186 -31l0 0c4 2 8 5 12 9l0 0l1 1c4 3 7 7 10 11l1 1l0 0l0 0l1 1l1 0c19 22 53 24 75 4c22 -19 24 -53 5 -75c-46 -53 -113 -85 -183 -85zm148 421l-765 0c-29 0 -52 24 -52 54c4 200 238 351 422 354c187 3 443 -156 448 -355c0 -29 -24 -53 -53 -53zm-700 106l634 0c-61 121 -190 201 -330 197c-130 -4 -247 -83 -304 -197z" /></svg>