<svg viewBox="0 0 888 1000" xmlns="http://www.w3.org/2000/svg"><path fill="currentColor" d="M53 157c-11 0 -21 4 -30 10c-24 17 -30 50 -13 75c45 63 119 102 196 102c71 0 138 -32 183 -85c20 -22 18 -55 -4 -75c-22 -20 -56 -18 -76 4l0 0l-1 1l0 0l0 1l-1 1c-3 3 -7 7 -10 10l-1 1l-1 1c-3 3 -7 6 -11 9l0 0c-59 42 -143 29 -186 -32c-11 -15 -28 -23 -45 -23zm485 0c-11 0 -21 4 -30 10c-24 17 -30 50 -13 75c45 63 119 102 197 102c70 0 137 -32 183 -85c19 -22 17 -55 -5 -75c-22 -20 -56 -18 -75 4l-1 0l-1 1l0 0l0 1l-1 1c-3 3 -7 7 -10 10l-1 1l0 1c-4 3 -8 6 -12 9l0 0c-59 42 -143 29 -186 -32c-11 -15 -28 -23 -45 -23zm-435 579c-29 0 -53 24 -53 53c0 30 24 54 53 54l682 0c30 0 54 -24 54 -54s-24 -53 -54 -53l-682 0z" /></svg>