<svg viewBox="0 0 1948 1000" xmlns="http://www.w3.org/2000/svg"><path fill="currentColor" d="M53 0c-20 0 -39 11 -48 30c-13 27 -1 59 25 71l152 80c-3 46 8 93 34 129c21 28 52 49 88 49c90 0 126 -108 121 -180c-120 -53 -232 -114 -349 -174c-7 -3 -15 -5 -23 -5zm519 169c-30 0 -54 24 -54 54s24 54 54 54l186 0c30 0 54 -24 54 -54c0 -30 -24 -54 -54 -54l-186 0zm619 87c-40 0 -77 17 -105 43l-2 2c-5 5 -10 11 -14 17c-11 15 -20 32 -24 51c-18 7 -36 14 -53 23c-27 13 -55 29 -82 48l0 0c-73 50 -163 159 -201 265c-8 22 -14 44 -17 66c-3 21 -4 42 -2 63l1 4l0 1c9 68 37 114 78 140c9 5 18 9 28 13c8 2 17 4 26 5c2 1 3 1 6 1l3 0l0 0l1 0c54 3 100 2 145 1c21 -1 41 -1 60 -1c118 -1 143 -92 167 -184c7 -26 14 -52 23 -72l219 0c84 0 127 -45 148 -100c3 -11 6 -21 8 -32l290 1l1 0c29 0 52 -23 52 -52l0 -154l1 0l0 -67l-1 0l0 0c0 -21 -8 -40 -22 -53c-12 -12 -27 -20 -44 -22c-3 -1 -7 -1 -10 -1l-49 0l0 0l-1 0c-19 1 -36 8 -49 19l0 1l-1 0l-2 2l-1 1c-9 8 -15 20 -19 32l-162 0c-14 -18 -31 -33 -51 -43l0 0c-5 -3 -10 -5 -15 -7l-4 -1c-14 -6 -29 -9 -45 -9c-2 -1 -4 -1 -6 -1l-275 0zm278 105c4 1 8 2 12 3l1 1l1 0l0 0c2 0 3 1 4 1l0 1l0 0c9 5 17 13 21 23c9 21 31 34 53 32l237 0c19 0 35 -10 45 -24l0 7l0 0l0 101l-286 -1c-29 0 -52 23 -52 52l0 0c0 3 -1 8 -1 13l0 0l0 1l0 0c-1 6 -1 12 -3 18c-1 6 -2 11 -4 16c-6 18 -20 32 -49 32l-249 0c-19 0 -36 10 -45 26c-4 6 -9 13 -12 19l0 1c-6 -4 -35 97 -37 104c-14 53 -28 106 -67 106c-22 0 -42 1 -62 1l0 0c-42 1 -85 3 -135 0l0 0l-3 -1l-2 0c-2 0 -4 -1 -5 -1c-3 -1 -5 -2 -7 -3c-13 -8 -24 -30 -28 -64l0 -1l-1 -1c-1 -11 0 -23 2 -37c2 -15 6 -30 12 -45c31 -87 103 -175 161 -215l0 0l0 0c23 -15 46 -29 70 -40c23 -12 46 -21 69 -29c22 -7 36 -28 36 -50l0 0l0 0l0 0l0 -2c1 -9 4 -18 9 -25c2 -2 3 -4 5 -5c8 -8 20 -14 32 -14l275 0l3 0zm-1027 176c-123 0 -241 44 -334 120c-17 15 -35 31 -51 49c-16 17 -31 36 -45 55c-16 24 -10 57 14 74c24 17 57 11 73 -13c11 -16 23 -31 36 -44c12 -14 26 -27 41 -39c74 -61 168 -95 266 -95l0 0l0 -1c18 0 36 2 55 4c1 0 1 0 8 2c16 2 31 5 45 9c28 7 58 -9 65 -38c8 -28 -9 -57 -37 -65c-19 -5 -38 -9 -57 -12c-1 0 -2 0 -11 -1c-22 -3 -45 -4 -68 -4l0 -1l0 0z" /></svg>