<svg viewBox="0 0 928 1000" xmlns="http://www.w3.org/2000/svg"><path fill="currentColor" d="M576 611l0 112l-55 0l0 167q0 23 -17 40t-39 17t-39 -17t-17 -40l0 -167l-56 0l0 -112l56 0l0 -503q0 -24 17 -39t38 -16q24 0 41 16t16 39l0 503l55 0zm335 -335l0 112l-55 0l0 502q0 23 -16 40t-41 17q-23 0 -39 -17t-16 -40l0 -502l-56 0l0 -112l56 0l0 -168q0 -24 16 -39t39 -16t41 16t16 39l0 168l55 0zm-670 112l0 111l-55 0l0 391q0 23 -16 40t-40 17q-23 0 -39 -17t-17 -40l0 -391l-56 0l0 -111l56 0l0 -280q0 -24 16 -39t40 -16t40 16t16 39l0 280l55 0z" /></svg>