<svg viewBox="0 0 1000 1000" xmlns="http://www.w3.org/2000/svg"><path fill="currentColor" d="M504 987c-216 0 -387 -126 -466 -306c-87 -200 -17 -521 139 -663l-6 156c8 -9 68 -12 78 1c32 -62 136 -109 220 -110c-32 26 -106 124 -99 174c40 13 103 13 136 15c10 6 8 40 -12 68c-27 36 -97 49 -97 49l8 106l-77 -38c-26 64 35 120 97 110c69 -12 94 -57 142 -54c49 2 68 29 61 54c-7 30 -59 25 -59 25c-44 70 -103 100 -198 92c144 119 338 11 387 -86c50 -97 7 -242 -43 -283c59 25 99 51 120 107c11 -124 -46 -266 -149 -349c193 56 311 205 314 444c3 239 -211 488 -496 488z" /></svg>