<svg viewBox="0 0 1228 1000" xmlns="http://www.w3.org/2000/svg"><path fill="currentColor" d="M1079 -1c-33 -1 -110 11 -239 97c-70 -18 -145 -26 -219 -26c-83 0 -166 10 -243 31c-185 -126 -267 -100 -267 -100c-53 133 -20 232 -10 256c-63 68 -101 154 -101 260c0 80 9 151 31 214c2 4 1 3 3 8c5 12 11 25 17 37c2 4 4 8 4 8c62 116 185 191 404 215l331 0c233 -23 345 -98 397 -216l3 -7c5 -12 9 -24 21 -66c12 -41 17 -113 17 -193c0 -115 -43 -207 -113 -276c12 -40 28 -128 -17 -240c0 0 -6 -2 -19 -2zm-261 421c54 0 100 9 135 46l0 0c43 45 69 100 69 159c0 277 -178 285 -398 285c-219 0 -397 -39 -397 -285c0 -58 25 -113 68 -158c71 -76 192 -36 329 -36c71 0 137 -11 194 -11zm-408 82c-46 0 -83 61 -83 137c0 77 37 138 83 138c45 0 82 -61 82 -138c0 -76 -37 -137 -82 -137zm443 0c-45 0 -82 61 -82 137c0 77 37 138 82 138c46 0 83 -61 83 -138c0 -76 -37 -137 -83 -137z" /></svg>