<svg viewBox="0 0 937.5 1000" xmlns="http://www.w3.org/2000/svg"><path fill="currentColor" d="M0 500q0 -95 37 -182t100 -149t149 -100t183 -37q95 0 182 37t149 100t100 149t37 182q0 95 -37 182t-100 150t-149 100t-182 37q-96 0 -183 -37t-149 -100t-100 -150t-37 -182zm117 0q0 71 28 137t75 112t112 75t137 28t136 -28t112 -75t75 -112t28 -137q0 -95 -47 -176t-128 -128t-176 -47t-177 47t-128 128t-47 176zm216 -176l31 101q45 -29 93 -29q49 0 49 23q0 4 -2 8t-3 5t-6 5t-7 5t-8 4l-8 4l-40 21q-22 12 -28 25t-6 37v37h117v-16q0 -7 0 -10t3 -6t6 -5q1 -1 11 -5t17 -8t19 -11t18 -13q19 -17 29 -37t11 -55q0 -49 -42 -83t-106 -34q-83 0 -148 37zm48 334q0 32 21 49t55 17q33 0 54 -17t20 -49t-20 -49t-54 -18q-35 0 -55 18t-21 49z" /></svg>