<svg viewBox="0 0 937.5 1000" xmlns="http://www.w3.org/2000/svg"><path fill="currentColor" d="M0 500q0 -95 37 -182t100 -149t149 -100t183 -37q95 0 182 37t149 100t100 149t37 182t-37 182t-100 150t-149 100t-182 37q-96 0 -183 -37t-149 -100t-100 -150t-37 -182zm333 -175l31 101q46 -29 92 -29q50 0 50 22q0 5 -2 8t-6 8t-7 5t-10 6t-9 4l-40 21q-22 12 -28 25t-6 37v38h117v-16q0 -7 0 -10t3 -6t6 -6q1 0 11 -4t17 -9t19 -10t18 -14q19 -16 29 -36t11 -56q0 -49 -42 -83t-106 -34q-85 0 -148 38zm48 333q0 32 21 49t55 17q33 0 54 -17t20 -49t-20 -49t-54 -18q-35 0 -55 18t-21 49z" /></svg>