<svg viewBox="0 0 944 1000" xmlns="http://www.w3.org/2000/svg"><path fill="currentColor" d="M844 0c-81 1 -181 46 -281 106c-239 -35 -498 103 -509 386c60 -93 224 -257 367 -301l0 13c-179 90 -571 612 -360 773c90 69 310 -37 344 -76c29 5 59 8 89 8c201 0 371 -124 424 -292l-301 0c-13 56 -56 92 -121 92c-102 0 -126 -68 -126 -151l561 0c29 -204 -114 -385 -306 -439c174 -115 363 -161 299 104l20 0c35 -109 21 -191 -38 -213c-18 -7 -37 -10 -58 -10c-1 0 -3 0 -4 0zm-352 303c79 0 128 48 128 129l-252 0c0 -77 46 -129 124 -129zm-367 422c58 83 149 145 256 171c-77 58 -226 84 -266 52c-48 -40 -36 -124 10 -223z" /></svg>