<svg viewBox="0 0 937.5 1000" xmlns="http://www.w3.org/2000/svg"><path fill="currentColor" d="M0 500q0 -95 37 -182t100 -149t149 -100t183 -37q95 0 182 37t149 100t100 149t37 182q0 95 -37 182t-100 150t-149 100t-182 37q-96 0 -183 -37t-149 -100t-100 -150t-37 -182zm117 0q0 71 28 137t75 112t112 75t137 28t136 -28t112 -75t75 -112t28 -137t-28 -136t-75 -112t-112 -75t-136 -28t-137 28t-112 75t-75 112t-28 136zm281 -170q0 -28 20 -45t51 -17q32 0 51 17t19 45t-19 46t-51 17q-32 0 -51 -17t-20 -46zm5 402v-299h132v299h-132z" /></svg>