<svg viewBox="0 0 1000 1000" xmlns="http://www.w3.org/2000/svg"><path fill="currentColor" d="M0 0l0 143l143 0l0 -143l-143 0zm286 0l0 143l143 0l0 -143l-143 0zm285 0l0 143l143 0l0 -143l-143 0zm286 0l0 143l143 0l0 -143l-143 0zm-857 286l0 143l143 0l0 -143l-143 0zm857 0l0 143l143 0l0 -143l-143 0zm-857 285l0 143l143 0l0 -143l-143 0zm857 0l0 143l143 0l0 -143l-143 0zm-857 286l0 143l143 0l0 -143l-143 0zm286 0l0 143l143 0l0 -143l-143 0zm285 0l0 143l143 0l0 -143l-143 0zm286 0l0 143l143 0l0 -143l-143 0z" /></svg>