<svg viewBox="0 0 937.5 1000" xmlns="http://www.w3.org/2000/svg"><path fill="currentColor" d="M0 786v-572q0 -39 28 -67t67 -27h558q40 0 68 27t28 67v64h93q39 0 67 28t28 67v413q0 39 -28 67t-67 27h-747q-39 0 -67 -27t-28 -67zm87 -43q1 20 15 34t34 15h517q7 0 8 -6v-528q0 -21 -15 -35t-36 -15h-472q-21 0 -35 14t-16 35v486zm74 -70q0 -18 13 -31t31 -13h133q18 0 31 13t13 31t-13 31t-31 13h-133q-18 0 -31 -13t-13 -31zm0 -173q0 -18 13 -31t31 -13h338q18 0 31 13t13 31q0 18 -13 31t-31 13h-338q-18 0 -31 -13t-13 -31zm0 -173q0 -18 13 -31t31 -13h338q18 0 31 13t13 31q0 18 -13 31t-31 13h-338q-18 0 -31 -13t-13 -31zm588 416q0 20 14 34t33 15h5q20 -1 34 -15t14 -35v-369q0 -7 -7 -7h-93v377z" /></svg>