<svg viewBox="0 0 928 1000" xmlns="http://www.w3.org/2000/svg"><path fill="currentColor" d="M688 221q92 0 158 66t65 157t-65 158t-158 65l-447 0q-92 0 -157 -65t-66 -158t66 -157t157 -66q1 0 30 3q30 -52 81 -83t112 -32q60 0 113 32t81 83q28 -3 30 -3zm0 335q45 0 78 -33t33 -79t-33 -79t-78 -33t-79 33t-33 79l-112 0q0 -109 90 -178q-33 -45 -90 -45q-45 0 -78 33t-33 78q0 22 7 40l-104 38q-15 -36 -15 -75q-44 1 -77 33t-34 76q0 46 33 79t78 33l447 0zm-579 320q-15 15 -37 15t-38 -16t-16 -38t16 -38q9 -9 47 -28t71 -33l34 -14q-56 131 -77 152zm223 0q-15 15 -36 15t-39 -15q-16 -16 -16 -39t16 -38q9 -9 48 -28t72 -33l32 -14q-55 131 -77 152zm224 0q-16 15 -38 15t-38 -16t-16 -38t16 -38q10 -9 48 -28t71 -33l33 -14q-56 131 -76 152z" /></svg>