<svg viewBox="0 0 1000 1000" xmlns="http://www.w3.org/2000/svg"><path fill="currentColor" d="M494 0c-266 0 -483 210 -494 472c-1 19 13 20 13 20l84 0c16 0 19 -10 19 -18c10 -199 176 -358 378 -358c107 0 205 45 273 118l-58 57c-11 12 -11 27 5 31l247 50c21 5 46 -11 37 -44l-58 -227c-2 -9 -16 -22 -29 -13l-65 60c-89 -91 -214 -148 -352 -148zm409 508c-16 0 -19 10 -19 18c-10 199 -176 358 -377 358c-108 0 -205 -45 -274 -118l59 -57c10 -12 10 -27 -5 -31l-248 -50c-21 -5 -46 11 -37 44l58 227c2 9 16 22 30 13l64 -60c89 91 214 148 353 148c265 0 482 -210 493 -473c1 -18 -13 -19 -13 -19l-84 0z" /></svg>