<svg viewBox="0 0 1000 1000" xmlns="http://www.w3.org/2000/svg"><path fill="currentColor" d="M46 706l0 0c0 0 -1 0 -1 0c-8 -18 -15 -37 -21 -55c-6 -19 -11 -38 -15 -58c-19 -99 -8 -203 35 -298c3 -6 10 -8 15 -5c1 0 2 0 2 1l0 0l80 59c5 3 6 9 4 14c-5 12 -9 25 -12 37c-4 13 -7 26 -9 40c-11 67 -3 137 23 201c2 5 0 10 -4 13l0 0l-80 56c-5 4 -12 2 -16 -3c-1 0 -1 -1 -1 -2l0 0zm120 -574l0 0c0 -1 0 -1 0 -1c15 -13 30 -25 46 -37c16 -11 33 -22 51 -31c89 -50 192 -72 297 -60c6 1 10 6 10 13c0 1 -1 1 -1 2l0 0l-31 94c-2 5 -8 8 -13 7c-13 0 -27 0 -40 0c-14 1 -27 2 -40 4c-68 11 -133 40 -186 84c-4 3 -10 3 -14 0l0 0l-79 -58c-5 -3 -6 -11 -2 -16c0 0 1 -1 2 -1l0 0zm588 -65l0 0c0 0 1 0 1 0c17 10 34 21 50 32c16 12 31 25 46 38c74 69 127 160 148 262c2 6 -2 12 -9 13c-1 0 -1 0 -2 0l0 0l-100 -1c-5 0 -10 -4 -11 -9c-3 -13 -8 -26 -12 -38c-5 -12 -10 -25 -17 -36c-31 -61 -78 -113 -137 -150c-5 -3 -6 -8 -5 -13l0 0l31 -92c2 -6 9 -9 15 -7c1 0 2 1 2 1l0 0zm244 535l0 0c0 0 0 0 0 0c-4 20 -9 39 -15 57c-7 19 -14 37 -22 55c-44 92 -114 170 -205 221c-6 3 -13 1 -16 -4c0 -1 -1 -2 -1 -2l0 0l-30 -94c-2 -6 1 -12 6 -14c11 -7 22 -15 32 -23c11 -9 21 -18 30 -27c49 -48 84 -109 101 -176c2 -5 6 -8 11 -8l0 0l98 1c6 0 11 5 11 11c0 1 0 2 0 3l0 0zm-438 395l0 0c0 0 0 0 0 0c-20 2 -40 3 -60 3c-20 0 -40 -1 -59 -4c-102 -12 -198 -54 -276 -125c-5 -4 -5 -11 0 -16c0 0 1 -1 1 -1l0 0l81 -58c5 -3 12 -2 16 2c10 8 20 16 32 23c11 7 22 14 34 20c62 31 131 45 200 41c6 0 10 3 12 8l0 0l29 92c2 6 -1 12 -7 14c-1 1 -2 1 -3 1l0 0z" /></svg>