<svg viewBox="0 0 928 1000" xmlns="http://www.w3.org/2000/svg"><path fill="currentColor" d="M465 388q-46 0 -79 33t-33 79t33 78t79 33t78 -33t33 -78t-33 -79t-78 -33zm0 -112q92 0 158 66t65 158t-65 158t-158 65t-158 -65t-66 -158t66 -158t158 -66zm-56 -168q0 -55 55 -55q57 0 57 55q0 57 -57 57q-55 0 -55 -57zm-279 112q0 -55 56 -55q55 0 55 55q0 56 -55 56q-56 0 -56 -56zm-56 223q23 0 40 16t16 40t-16 40t-40 16t-40 -16t-16 -40q0 -24 16 -40t40 -16zm56 335q0 -55 56 -55q55 0 55 55q0 56 -55 56q-56 0 -56 -56zm279 112q0 -22 17 -39t38 -17q24 0 41 17t16 39t-17 40t-39 17t-39 -17t-17 -40zm296 -72q-16 -16 -16 -39t16 -39t39 -17t40 17t15 39t-15 39t-40 15t-39 -15zm151 -263q-24 0 -40 -16t-17 -40q0 -24 17 -40t40 -16t39 16t16 40t-16 40t-39 16zm-72 -295q-16 16 -40 16t-39 -16t-16 -40t16 -40t39 -17t40 17t15 40t-15 40z" /></svg>