<svg viewBox="0 0 928 1000" xmlns="http://www.w3.org/2000/svg"><path fill="currentColor" d="M521 443l0 -162q60 16 103 60t59 102l-162 0zm0 113l162 0q-16 59 -59 103t-103 59l0 -162zm-113 -113l-162 0q16 -59 59 -102t103 -60l0 162zm0 113l0 162q-60 -16 -103 -59t-59 -103l162 0zm113 -390l0 -113q152 19 261 128t129 262l-113 0q-18 -107 -95 -183t-182 -94zm-390 277l-113 0q19 -152 128 -261t262 -129l0 113q-106 18 -182 94t-95 183zm277 390l0 114q-154 -19 -262 -129t-128 -262l113 0q18 107 95 183t182 94zm390 -277l113 0q-21 153 -129 262t-261 129l0 -114q105 -18 182 -94t95 -183z" /></svg>