<svg viewBox="0 0 937.5 1000" xmlns="http://www.w3.org/2000/svg"><path fill="currentColor" d="M0 788q0 30 21 51t51 21h32q30 0 51 -21t21 -51t-21 -51t-51 -21h-32q-30 0 -51 21t-21 51zm0 -288q0 30 21 51t51 21h32q30 0 51 -21t21 -51t-21 -51t-51 -21h-32q-30 0 -51 21t-21 51zm0 -288q0 30 21 51t51 21h32q30 0 51 -21t21 -51t-21 -51t-51 -21h-32q-30 0 -51 21t-21 51zm234 576q0 30 21 51t51 21h559q30 0 51 -21t21 -51t-21 -51t-51 -21h-559q-30 0 -51 21t-21 51zm0 -288q0 30 21 51t51 21h559q30 0 51 -21t21 -51t-21 -51t-51 -21h-559q-30 0 -51 21t-21 51zm0 -288q0 30 21 51t51 21h559q30 0 51 -21t21 -51t-21 -51t-51 -21h-559q-30 0 -51 21t-21 51z" /></svg>