<svg viewBox="0 0 937.5 1000" xmlns="http://www.w3.org/2000/svg"><path fill="currentColor" d="M0 916v-286q0 -22 15 -37t37 -16h286q21 0 37 16t15 37v286q0 21 -15 36t-37 15h-286q-22 0 -37 -15t-15 -36zm0 -546v-286q0 -21 15 -36t37 -15h286q21 0 37 15t15 36v286q0 22 -15 37t-37 16h-286q-21 0 -37 -16t-15 -37zm88 510h214v-214h-214v214zm0 -546h214v-213h-214v213zm459 582v-286q0 -22 15 -37t37 -16h286q21 0 37 16t15 37v286q0 21 -15 36t-37 15h-286q-21 0 -37 -15t-15 -36zm0 -546v-286q0 -21 15 -36t37 -15h286q22 0 37 15t15 36v286q0 22 -15 37t-37 16h-286q-21 0 -37 -16t-15 -37zm88 510h215v-214h-215v214zm0 -546h215v-213h-215v213z" /></svg>