<svg viewBox="0 0 884.8 1000" xmlns="http://www.w3.org/2000/svg"><path fill="currentColor" d="M0 166q0 -37 59 -67t161 -49t222 -18q121 0 223 18t161 49t59 67q-10 80 -39 227t-55 276t-29 138q-6 36 -39 68t-81 51t-100 31t-100 12t-100 -12t-99 -31t-81 -51t-39 -68q-4 -21 -33 -160t-56 -278t-34 -203zm126 223l38 183l87 -75zm6 -193q0 31 91 54t219 22q129 0 220 -22t91 -54q0 -32 -91 -55t-220 -22t-219 22t-91 55zm55 488l21 102l49 -42zm8 -312l101 87l71 -62q-95 -6 -172 -25zm5 246l101 88l96 -83l-101 -87zm49 209q72 31 149 38l-97 -83zm91 -330l101 88l96 -83l-99 -89zm6 247l102 88l95 -83l-102 -88zm140 -121l101 87l92 -80l-98 -89zm14 241q71 -8 134 -36l-47 -41zm8 -466l73 66l106 -91q-79 20 -179 25zm117 105l93 84l41 -199zm7 246l44 39l20 -96z" /></svg>