<svg viewBox="0 0 928 1000" xmlns="http://www.w3.org/2000/svg"><path fill="currentColor" d="M688 165l223 0l0 111l-112 0l0 502q0 69 -48 119t-119 50l-334 0q-70 0 -119 -50t-49 -119l0 -502l-112 0l0 -111l223 0q0 -46 33 -79t79 -33l223 0q46 0 79 33t33 79zm-335 558q24 0 40 -17t16 -40t-16 -39t-40 -16t-39 16t-16 39q0 24 16 41t39 16zm0 -224q24 0 40 -16t16 -40t-16 -39t-40 -16t-39 16t-16 39q0 24 16 40t39 16zm223 224q24 0 40 -17t16 -40t-16 -39t-40 -16t-39 16t-16 39q0 24 16 41t39 16zm0 -224q24 0 40 -16t16 -40t-16 -39t-40 -16t-39 16t-16 39q0 24 16 40t39 16z" /></svg>