<svg viewBox="0 0 928 1000" xmlns="http://www.w3.org/2000/svg"><path fill="currentColor" d="M911 165l0 111l-112 0l0 502q0 69 -48 119t-119 50l-334 0q-70 0 -119 -50t-49 -119l0 -502l-112 0l0 -111l223 0q0 -46 33 -79t79 -33l223 0q46 0 79 33t33 79l223 0zm-223 613l0 -502l-447 0l0 502q0 24 17 40t40 16l334 0q23 0 40 -16t16 -40zm-390 -112q0 -55 55 -55q56 0 56 55q0 57 -56 57q-55 0 -55 -57zm0 -223q0 -55 55 -55q56 0 56 55q0 56 -56 56q-55 0 -55 -56zm223 223q0 -55 55 -55q56 0 56 55q0 57 -56 57q-55 0 -55 -57zm0 -223q0 -55 55 -55q56 0 56 55q0 56 -56 56q-55 0 -55 -56z" /></svg>