<svg viewBox="0 0 1231 1000" xmlns="http://www.w3.org/2000/svg"><path fill="currentColor" d="M1231 118q-51 77 -126 131q1 14 1 32q0 102 -30 203q-29 102 -90 195q-61 92 -145 164q-84 72 -201 114q-118 43 -253 43q-210 0 -387 -113q31 3 60 3q176 0 314 -108q-82 -2 -147 -51q-64 -49 -89 -125q24 5 48 5q34 0 66 -9q-87 -17 -145 -87q-57 -69 -57 -160l0 -4q53 30 114 32q-52 -34 -82 -90q-30 -55 -30 -120q0 -68 34 -127q95 117 230 186q135 70 290 78q-6 -28 -6 -58q0 -104 74 -178q74 -74 178 -74q110 0 185 80q85 -17 160 -62q-29 91 -111 140q76 -9 145 -40z" /></svg>