<svg xmlns="http://www.w3.org/2000/svg" xmlns:xlink="http://www.w3.org/1999/xlink" viewBox="0 0 2692.57 362.61"><defs><style>.cls-1{fill:none;}.cls-2{clip-path:url(#clip-path);}.cls-3{fill:#099;}.cls-4{fill:#6cc;}.cls-5{fill:#6c9;}.cls-6{fill:#669;}</style><clipPath id="clip-path" transform="translate(344.57 -26.99)"><rect class="cls-1" width="1920" height="391.98"/></clipPath></defs><g id="Layer_2" data-name="Layer 2"><g id="Flat"><g class="cls-2"><path class="cls-3" d="M2021.13,50.47c-32.45-15.07-111.85-19-176.47-14.1s-118.24,7-172,17.81S1560,75.57,1493.33,77.41c-76.81,2.11-150.44-7.75-227.45-7.54-98.14.28-191.7,16.83-289.11,14.42C834.41,80.78,750.2,39.45,613.2,29.38,484.84,19.94,350.89,40.17,239.07,60.61S3.48,103.73-129.51,99.69C-230.4,96.62-318.85,76.54-344.57,50.86l2,238.15,2333.38-19.73Z" transform="translate(344.57 -26.99)"/><path class="cls-4" d="M-78,124.75C-42,87.14,72.81,62,180.66,68c78.68,4.44,146,22.93,222.22,31.25,144.57,15.77,297-6.48,438.87-25.28S1149,40.26,1279,68.22c75.46,16.24,136,46.33,223.57,47.43,58.28.73,112-12.19,170.23-13.46,72.74-1.58,137.72,14.87,204.9,25.18C2030.92,150.88,2218.6,141.2,2348,103.1V358H-38.81Z" transform="translate(344.57 -26.99)"/><path class="cls-5" d="M1936.28,153.68C1842,135.62,1727,129.93,1621,138.07c-79.5,6.11-155.91,19.71-237.34,18-76.73-1.62-144.09-16.56-210.64-29.38s-143.52-24.25-218.15-18.08c-80.07,6.62-135.17,31.72-212.44,41.35-81.08,10.1-172.09,1.54-251.19-10.17S335,113,249,109.67C130,105,5.54,125.84-54.32,160.38V285H1964.44Z" transform="translate(344.57 -26.99)"/><path class="cls-6" d="M-32.2,186.3c72.42,21.06,165,17.2,244.75,3.95s152.77-34.92,232.11-48.8,171-19.21,245.45.12c69,17.93,116.36,55.2,192.61,63.56,60.72,6.67,122.74-7.23,175.28-23.54s103.28-35.86,164-42.43c71.19-7.7,145,3.65,211.9,17.87s132.32,31.67,204.4,37c67,5,135.46-.84,203.14,1.09S1982.62,209.52,2014,238.9V389.6H-26.66Z" transform="translate(344.57 -26.99)"/></g></g></g></svg>