<svg xmlns="http://www.w3.org/2000/svg" width="457.6" height="450" viewBox="0 0 457.6 450"><path d="M229,0C102.4,0,0,103.1,0,230.7A230.6,230.6,0,0,0,156.6,449.6c11.4,2.3,15.5-5,15.5-11.1s-.3-23.7-.3-42.8c-63.7,13.8-77-27.5-77-27.5-10.3-26.7-25.4-33.6-25.4-33.6-20.9-14.1,1.5-14.1,1.5-14.1,23.1,1.5,35.3,23.6,35.3,23.6,20.4,35.2,53.4,25.3,66.7,19.1,1.9-14.9,8-25.2,14.4-30.9C136.5,327,83,307.1,83,218.5c0-25.2,9.1-45.9,23.5-61.9-2.2-5.7-10.2-29.4,2.3-61.1,0,0,19.4-6.1,62.9,23.7a222.2,222.2,0,0,1,57.3-7.7,219.9,219.9,0,0,1,57.3,7.7c43.6-29.8,62.9-23.7,62.9-23.7,12.5,31.7,4.5,55.4,2.3,61.1,14.8,16,23.5,36.7,23.5,61.9,0,88.6-53.5,108.1-104.7,113.8,8.4,7.3,15.6,21,15.6,42.8,0,30.9-.4,55.7-.4,63.4,0,6.1,4.2,13.4,15.5,11.1A230.6,230.6,0,0,0,457.6,230.7C458,103.1,355.3,0,229,0Z" fill-rule="evenodd"/></svg>