<svg xmlns="http://www.w3.org/2000/svg" width="438" height="447.7" viewBox="0 0 438 447.7"><circle cx="58.4" cy="58.4" r="58.4"/><rect x="9.7" y="155.7" width="97.3" height="292" rx="4.4"/><path d="M438,262.8V428.3a19.5,19.5,0,0,1-19.5,19.4H360.1a19.4,19.4,0,0,1-19.4-19.4V292a48.7,48.7,0,0,0-97.4,0V428.3a19.4,19.4,0,0,1-19.4,19.4H165.5A19.5,19.5,0,0,1,146,428.3V175.2a19.6,19.6,0,0,1,19.5-19.5h58.4a19.5,19.5,0,0,1,19.4,19.5v12.5C262.8,162.4,295,146,330.9,146,384.7,146,438,184.9,438,262.8Z"/></svg>