<?xml version="1.0" encoding="utf-8"?>
<!-- Generator: Adobe Illustrator 24.3.0, SVG Export Plug-In . SVG Version: 6.00 Build 0)  -->
<svg version="1.1" id="logo" xmlns="http://www.w3.org/2000/svg" xmlns:xlink="http://www.w3.org/1999/xlink" x="0px" y="0px"
	 viewBox="0 0 1400 253" enable-background="new 0 0 1400 253" xml:space="preserve">
<path fill="#E6E7E8" d="M177.64,138.15v105.17h-60.16v-98.18c0-20.14-7.08-30.41-22.78-30.41c-18.2,0-29.55,12.92-29.55,35.33v93.26
	H5V5.6h60.16v74.56C78.02,69.8,94.37,63.5,111.78,63.5C151.87,63.5,177.64,92.88,177.64,138.15z M196.89,168.34V68.67h60.16v97.06
	c0,18.43,9.91,29.28,25.98,29.28c16.07,0,25.79-11.03,25.79-29.28V68.67h60.16v99.67c0,48.87-34.36,80.7-85.95,80.7
	C231.44,249.04,196.89,217.21,196.89,168.34z M572.86,154.34c0,5.26-0.46,10.53-1.24,15.93H441.94
	c3.94,20.03,16.66,30.39,35.66,30.39c14.05,0,25.79-6.16,31.58-16.38h59.86c-12.29,39.86-47.62,64.76-91.44,64.76
	c-54.49,0-94.86-39.83-94.86-93.18c0-53.54,40.05-92.91,94.86-92.91C533.89,62.95,572.87,103.11,572.86,154.34L572.86,154.34z
	 M443,136.96h70.6c-5.28-17.46-17.86-26.87-36.01-26.87C460.05,110.08,447.86,119.61,443,136.96z M854.53,133.78v109.54h-60.16
	v-102.1c0-18.24-6.71-27.04-19.5-27.04c-16.53,0-25.01,11.39-25.01,33.38v95.76h-58.59v-102.1c0-17.69-6.67-27.04-19.26-27.04
	c-16.31,0-25.25,11.66-25.25,33.38v95.76h-60.16V68.67h42.3l8.56,18.77c12.62-14.7,30.93-23.93,51.05-23.93
	c21.29,0,39.22,9.56,50.09,25.71c12.55-15.8,31.89-25.71,53.63-25.71C829.66,63.5,854.53,92.65,854.53,133.78z M1058.41,154.34
	c0,5.26-0.46,10.53-1.24,15.93H927.49c3.94,20.03,16.66,30.39,35.65,30.39c14.05,0,25.79-6.16,31.58-16.38h59.86
	c-12.29,39.86-47.62,64.76-91.44,64.76c-54.49,0-94.86-39.83-94.86-93.18c0-53.54,40.05-92.91,94.86-92.91
	C1019.44,62.95,1058.41,103.11,1058.41,154.34L1058.41,154.34z M928.55,136.96h70.6c-5.28-17.46-17.86-26.87-36.01-26.87
	C945.6,110.08,933.41,119.61,928.55,136.96z M1244.8,136.82v106.49h-60.16v-98.18c0-20.33-7.64-30.41-22.78-30.41
	c-18.76,0-29.55,13.1-29.55,35.33v93.26h-60.16V68.67h42.21l8.26,18.01c13-14.49,32.39-23.17,54.98-23.17
	C1218.16,63.5,1244.8,92.33,1244.8,136.82z M1394,190.63v52.69h-41.39c-38.62,0-62.1-23.61-62.1-62.42V115h-31.97v-14.06
	l78.25-83.33h12.36v51.06h43.88V115h-42.36v55.58c0,12.51,7.55,20.05,20.24,20.05H1394z"/>
</svg>
