<svg xmlns="http://www.w3.org/2000/svg" viewBox="0 0 1465.24 106.68">
  <defs>
    <style>
      .b11a07b1-e215-49a8-a5d7-e9220eacdefc {
        fill: #3bfc43;
      }
    </style>
  </defs>
  <g id="bc349500-cd53-4e93-a786-703a5c1f51ae" data-name="Layer 2">
    <g id="a608ddfc-548e-4f56-bb96-3dfe8cc66efe" data-name="Layer 3">
      <path class="b11a07b1-e215-49a8-a5d7-e9220eacdefc" d="M76.15,84.8c27.65,2,45-20,65.65-34.34,17.38-12.08,36.44-14.47,55-3.59C216.28,58.22,230.34,78,251.61,86.3c41.7,16.33,72-33.28,104.15-50.26,17.25-9.11,35.77-8.71,51.86,2.84,10,7.18,18.05,16.62,27.34,24.64,12.29,10.62,26.46,16.24,42.81,16.08C511,79.28,538.64,59,567.59,45.42c27.51-12.86,57.28-17.75,87.51-16C720.86,33.14,780.54,63,841.71,84.31S970.77,119.49,1031.47,89c47-23.63,89-65.15,145.62-57.62,53,7,96.64,46.93,150.84,48.31,56.39,1.43,100.84-40.92,137.31-79.64H0A248.13,248.13,0,0,0,10.81,30.11C22.74,56.85,44.93,82.6,76.15,84.8Z"/>
    </g>
  </g>
</svg>
