<svg id="Layer_1" data-name="Layer 1" xmlns="http://www.w3.org/2000/svg" xmlns:xlink="http://www.w3.org/1999/xlink" viewBox="0 0 500 350"><defs><style>.cls-1{fill:none;}.cls-2{fill:#9cf;}.cls-3{fill:#69c;}.cls-11,.cls-4{fill:#fff;}.cls-5{fill:gray;}.cls-6{fill:#666;}.cls-18,.cls-7{fill:#4d4d4d;}.cls-26,.cls-8{fill:#fc7175;}.cls-16,.cls-9{fill:#101c29;}.cls-10,.cls-20{fill:#24b68c;}.cls-10,.cls-11,.cls-12,.cls-16,.cls-17,.cls-18,.cls-23,.cls-25,.cls-26,.cls-27,.cls-29,.cls-30{fill-rule:evenodd;}.cls-12,.cls-24{fill:#799ad7;}.cls-13,.cls-25{fill:#f4e848;}.cls-14,.cls-23{fill:#65d999;}.cls-15{fill:#f99;}.cls-17{fill:#ff9;}.cls-19{fill:#f2f2f2;}.cls-21{clip-path:url(#clip-path);}.cls-22{fill:#e6e6e6;}.cls-27{fill:#96c;}.cls-28,.cls-29{fill:#6b62ca;}.cls-30{fill:#c66;}</style><clipPath id="clip-path"><rect class="cls-1" x="365" y="257.54" width="117.07" height="58.96" rx="5.54"/></clipPath></defs><polygon class="cls-2" points="296.42 270.81 291.93 262.91 267.43 262.91 265.36 262.91 251.42 262.91 251.42 336.36 263.57 336.36 304.01 336.36 304.01 336.36 304.01 275.49 296.42 270.81"/><polygon class="cls-3" points="291.93 264.67 291.93 275.49 304.01 280.24 304.01 275.49 291.93 264.67"/><polygon class="cls-4" points="291.93 262.91 291.93 275.49 304.01 275.49 291.93 262.91"/><path class="cls-5" d="M264.44,327a4.82,4.82,0,1,0,1.72,9.49L303,329.84l-1.72-9.49Zm1.1,6.7a2,2,0,0,1-.71-3.88,2,2,0,0,1,.71,3.88Z"/><rect class="cls-6" x="292.7" y="321.13" width="9.56" height="9.64" transform="translate(-53.37 58.29) rotate(-10.27)"/><path class="cls-5" d="M306.6,324.29h0a5,5,0,0,1,4-5.83l6-1.08a12.2,12.2,0,1,0,1.79,9.87l-6,1.09A5,5,0,0,1,306.6,324.29Z"/><path class="cls-4" d="M272.41,326.67h22.39a0,0,0,0,1,0,0v3.94a0,0,0,0,1,0,0H272.41a1.93,1.93,0,0,1-1.93-1.93v-.09A1.93,1.93,0,0,1,272.41,326.67Z" transform="translate(-54.09 55.69) rotate(-10.28)"/><rect class="cls-7" x="259.74" y="305.77" width="34.53" height="2.65" rx="1.33"/><rect class="cls-7" x="259.74" y="298.68" width="34.53" height="2.65" rx="1.33"/><rect class="cls-7" x="259.74" y="291.6" width="34.53" height="2.65" rx="1.33"/><rect class="cls-7" x="259.74" y="284.52" width="34.53" height="2.65" rx="1.33"/><rect class="cls-8" x="13" y="264.5" width="97" height="52"/><rect class="cls-9" x="116" y="42.68" width="234.54" height="84.75" rx="6.02"/><path class="cls-10" d="M309.44,63.12a6.87,6.87,0,1,0-6.87-6.87A6.88,6.88,0,0,0,309.44,63.12Z"/><path class="cls-11" d="M296,32.5a4.7,4.7,0,0,1,4.7,4.7,4.64,4.64,0,0,1-.32,1.71q15.07,7.61,30.14,15.22a4.7,4.7,0,1,1,0,5L299.39,74.5a2.15,2.15,0,0,1,.08.62,2.35,2.35,0,1,1-2.87-2.29l-.94-30.94A4.7,4.7,0,0,1,296,32.5ZM286.28,58A2.33,2.33,0,1,1,284,60.36,2.32,2.32,0,0,1,286.28,58Zm36.11-20.18a1.41,1.41,0,1,0,1.4,1.4,1.41,1.41,0,0,0-1.4-1.4Zm7.68,20.45a4.63,4.63,0,0,1-.31-1.67,4.76,4.76,0,0,1,.32-1.7L299.94,39.72a4.71,4.71,0,0,1-3.38,2.14l.95,30.94a2.38,2.38,0,0,1,1.48.89Z"/><path class="cls-12" d="M338.32,83.8a5.22,5.22,0,1,0-5.22-5.22A5.23,5.23,0,0,0,338.32,83.8Z"/><path class="cls-11" d="M295,103.74a21.79,21.79,0,1,1,33.27,23.69H303.78A21.81,21.81,0,0,1,295,103.74Z"/><path class="cls-12" d="M334.41,97.71a21.79,21.79,0,0,1-6.18,29.72H303.78c-.47-.32-.92-.65-1.36-1a7.71,7.71,0,0,0,3.71-3.54c2.34-4.55,15.12-1.62,14.41-8.41s.87-5.45,8.82-10C333,102.39,334.21,99.84,334.41,97.71Z"/><path class="cls-12" d="M317.78,97.11a2,2,0,1,1-2,2,2,2,0,0,1,2-2Zm-7.18-8.84.68-.16a4.16,4.16,0,0,0,6.81,1.41,4.22,4.22,0,0,0,1-1.71l.69.12a4.86,4.86,0,0,1-8.1,2.08,4.91,4.91,0,0,1-1.12-1.74Zm25.61,29.3c-.09.22-.18.44-.28.65a4.09,4.09,0,0,0-5.33,6.17,4.09,4.09,0,0,0,.68.55l-.52.49a4.85,4.85,0,0,1-.65-.55,4.78,4.78,0,0,1,6.1-7.31Zm-8.12-17a4.88,4.88,0,1,1-3.43,1.43,4.8,4.8,0,0,1,3.43-1.43Zm2.94,1.92a4.15,4.15,0,1,0,1.22,2.94,4.15,4.15,0,0,0-1.22-2.94Zm-24.3-1.84a4.78,4.78,0,1,1-3.38,1.4,4.74,4.74,0,0,1,3.38-1.4Zm2.89,1.89a4.08,4.08,0,1,0,1.2,2.89,4.07,4.07,0,0,0-1.2-2.89Zm.95,15.84a3.53,3.53,0,1,1-2.49,1,3.52,3.52,0,0,1,2.49-1Zm2,1.53a2.84,2.84,0,0,0-4,0,2.83,2.83,0,0,0,2,4.83,2.85,2.85,0,0,0,2-.83,2.85,2.85,0,0,0,0-4Z"/><path class="cls-11" d="M336.21,117.57h0l-.05.13h0c-.05.12-.09.23-.14.34h0l0,.06h0a4.09,4.09,0,0,0-5.33,6.17,4.09,4.09,0,0,0,.68.55h-.1l-.16.15h0l-.21.19h0a4.85,4.85,0,0,1-.65-.55,4.78,4.78,0,0,1,6.1-7.31Zm-29.16,4.21a4.38,4.38,0,0,1,.78-.51,2.51,2.51,0,0,0-.08.67,2.82,2.82,0,0,0,2.82,2.83,2.85,2.85,0,0,0,2-.83,2.85,2.85,0,0,0,0-4l-.06,0,.81-.15a3.53,3.53,0,1,1-6.28,2.2v-.16Zm16.61-14.34.62-.31a4.28,4.28,0,0,0,.87,1.27,4.16,4.16,0,0,0,6.31-5.38,6,6,0,0,0,.52-.47,4.85,4.85,0,0,1-7.32,6.34A4.7,4.7,0,0,1,323.66,107.44Z"/><path class="cls-11" d="M250,101.08a16.26,16.26,0,1,0-16.26-16.26A16.29,16.29,0,0,0,250,101.08Z"/><path class="cls-12" d="M252.23,70.26a2.63,2.63,0,1,1-1.87.77,2.65,2.65,0,0,1,1.87-.77Zm-9,12.93a2.91,2.91,0,1,1-2.91,2.91,2.9,2.9,0,0,1,2.91-2.91Zm1.71,1.2a2.41,2.41,0,0,0-3.42,0,2.43,2.43,0,0,0,0,3.41,2.4,2.4,0,0,0,1.71.71,2.42,2.42,0,0,0,1.71-4.12Zm-5.59-6a1.69,1.69,0,1,1,0,3.37,1.69,1.69,0,1,1,0-3.37Zm.84.84a1.15,1.15,0,0,0-.84-.35,1.2,1.2,0,0,0-1.2,1.19,1.2,1.2,0,0,0,1.2,1.2,1.2,1.2,0,0,0,1.19-1.2,1.17,1.17,0,0,0-.35-.84Zm12.09-8.48a2.16,2.16,0,1,0,2.16,2.15A2.15,2.15,0,0,0,252.23,70.75Z"/><path class="cls-12" d="M261.39,73.19a16.2,16.2,0,0,1,4.49,8A3.46,3.46,0,0,0,266,88.1,16.27,16.27,0,0,1,252,101c0-.11,0-.22,0-.34a3.83,3.83,0,0,0-7.62-.55,16.24,16.24,0,0,1-7.37-5.5c7,.32,9.53-1.12,11.72-6.45,2.32-5.66,7.67.71,9.24-8.13.74-4.18,2.14-6,3.42-6.8ZM266,81.7a3,3,0,0,0-2.67,3,3,3,0,0,0,.87,2.1,3,3,0,0,0,1.86.86,16.2,16.2,0,0,0,.24-2.8,16,16,0,0,0-.3-3.12ZM251.48,101a2.56,2.56,0,0,0,0-.39,3.34,3.34,0,0,0-6.66-.38,16.38,16.38,0,0,0,5.17.84A14.13,14.13,0,0,0,251.48,101Z"/><path class="cls-11" d="M255.49,89.76a1.56,1.56,0,1,0-1.56-1.56A1.56,1.56,0,0,0,255.49,89.76Z"/><circle class="cls-4" cx="276.84" cy="114.7" r="1.26"/><path class="cls-11" d="M250.38,116.11a.67.67,0,1,0-.66-.67A.67.67,0,0,0,250.38,116.11Z"/><circle class="cls-4" cx="246.61" cy="53.43" r="0.89"/><path class="cls-11" d="M133.77,55.31h28.7a4.88,4.88,0,0,1,4.87,4.87h0A4.88,4.88,0,0,1,162.47,65h-28.7a4.88,4.88,0,0,1-4.87-4.86h0A4.88,4.88,0,0,1,133.77,55.31Z"/><rect class="cls-13" x="128.9" y="71.63" width="51.24" height="9.74" rx="4.87"/><ellipse class="cls-4" cx="216.5" cy="65.5" rx="2.5" ry="2"/><circle class="cls-4" cx="217.5" cy="91" r="2.5"/><circle class="cls-4" cx="190" cy="106.5" r="1"/><circle class="cls-8" cx="189.5" cy="62" r="3.5"/><ellipse class="cls-4" cx="219" cy="114" rx="1" ry="1.5"/><circle class="cls-14" cx="198.5" cy="98" r="4.5"/><rect class="cls-15" x="12.55" y="41.99" width="97.45" height="217.06"/><path class="cls-11" d="M45.76,199.68H95.92a3,3,0,0,1,3,3h0a3,3,0,0,1-3,3H45.76a3,3,0,0,1-3-3h0A3,3,0,0,1,45.76,199.68Z"/><path class="cls-11" d="M31.84,156.49a5,5,0,1,0-5-5A5,5,0,0,0,31.84,156.49Z"/><path class="cls-11" d="M45.76,146.58H95.92a3,3,0,0,1,3,3h0a3,3,0,0,1-3,3H45.76a3,3,0,0,1-3-3h0A3,3,0,0,1,45.76,146.58Z"/><path class="cls-11" d="M44.65,156.89H68.39a1.88,1.88,0,0,1,1.88,1.87h0a1.88,1.88,0,0,1-1.88,1.88H44.65a1.88,1.88,0,0,1-1.88-1.88h0A1.88,1.88,0,0,1,44.65,156.89Z"/><path class="cls-11" d="M85.81,156.89H76.13a1.88,1.88,0,0,0-1.88,1.87h0a1.88,1.88,0,0,0,1.88,1.88h9.68a1.88,1.88,0,0,0,1.88-1.88h0A1.88,1.88,0,0,0,85.81,156.89Z"/><path class="cls-11" d="M45.76,173.13h9.11a3,3,0,0,1,3,3h0a3,3,0,0,1-3,3H45.76a3,3,0,0,1-3-3h0A3,3,0,0,1,45.76,173.13Z"/><path class="cls-11" d="M44.65,183.44H80.12A1.88,1.88,0,0,1,82,185.32h0a1.88,1.88,0,0,1-1.88,1.88H44.65a1.88,1.88,0,0,1-1.88-1.88h0A1.88,1.88,0,0,1,44.65,183.44Z"/><path class="cls-11" d="M62.21,173.13H95.92a3,3,0,0,1,3,3h0a3,3,0,0,1-3,3H62.21a3,3,0,0,1-3-3h0A3,3,0,0,1,62.21,173.13Z"/><path class="cls-11" d="M31.84,183.05a5,5,0,1,0-5-5A5,5,0,0,0,31.84,183.05Z"/><path class="cls-11" d="M31.84,209.6a5,5,0,1,0-5-5A5,5,0,0,0,31.84,209.6Z"/><path class="cls-11" d="M44.65,210H88.49a1.89,1.89,0,0,1,1.88,1.88h0a1.89,1.89,0,0,1-1.88,1.88H44.65a1.88,1.88,0,0,1-1.88-1.88h0A1.88,1.88,0,0,1,44.65,210Z"/><path class="cls-11" d="M34.08,75.31S32.49,127.69,35.45,130s51,2.5,52.61-.91,1.14-55.35-3.42-55.8S35,70.75,34.08,75.31Z"/><path class="cls-16" d="M61.27,105.45A21.3,21.3,0,0,1,81.77,121a4.56,4.56,0,0,1-4.38,5.79H45.16A4.56,4.56,0,0,1,40.78,121a21.3,21.3,0,0,1,20.49-15.51Zm0-24.82A10.93,10.93,0,1,1,50.34,91.56,10.93,10.93,0,0,1,61.27,80.63Z"/><path class="cls-17" d="M352.31,221.71l-6.54,41.34-52.28-8.27L300,213.44a1.18,1.18,0,0,1,1.33-1l26.08,4.13.9-2.66a.57.57,0,0,1,.64-.39l16.86,2.67a.56.56,0,0,1,.48.56l0,2.82,5,.79A1.16,1.16,0,0,1,352.31,221.71Z"/><path class="cls-18" d="M329,239.5l-1.61,10.18-12.28-1.94,1.61-10.18a.58.58,0,0,0-.48-.66l-2.93-.46,10.7-7.78a.58.58,0,0,1,.81.13l7.77,10.7-2.92-.47A.59.59,0,0,0,329,239.5Z"/><rect class="cls-19" x="357" y="41.5" width="133" height="282" rx="6.19"/><path class="cls-11" d="M14.13,11.48H487.87A2.15,2.15,0,0,1,490,13.63V33.36a2.14,2.14,0,0,1-2.13,2.14H14.13A2.14,2.14,0,0,1,12,33.36V13.63A2.15,2.15,0,0,1,14.13,11.48Z"/><ellipse class="cls-8" cx="24.55" cy="23.49" rx="4.71" ry="4.73"/><ellipse class="cls-13" cx="41.96" cy="23.49" rx="4.71" ry="4.73"/><ellipse class="cls-20" cx="59.38" cy="23.49" rx="4.71" ry="4.73"/><rect class="cls-5" x="361" y="253.5" width="125" height="67" rx="6.24"/><g class="cls-21"><rect class="cls-14" x="360.75" y="257.76" width="126.13" height="58.39"/><path class="cls-11" d="M391.35,257.76h3c-6.64,18.7-22.59,19.44-33.62,17.37v-2.87c9.9,1.94,24.26,1.5,30.6-14.5Zm8.26,0h2.69c.57,5.39,2.64,9.89,7.66,11,2.92.64,5.76,1,8.48,1.39,12.67,1.7,22.93,3.08,25.46,25.27.94,8.21,2.5,15.18,4.87,20.75h-3a81.07,81.07,0,0,1-4.62-20.44c-2.29-20-11.59-21.27-23.07-22.81-2.8-.38-5.73-.77-8.69-1.42-6.56-1.43-9.11-7.16-9.76-13.72Zm30.48,0c2.65,5.48,9.14,12.33,25.05,12,10.87-.22,16.71-5.67,19.82-12h-3.23c-2.91,5-8,9.06-16.65,9.23-13.18.26-19.13-4.75-21.81-9.23ZM486.88,273v2.83c-11.56-3.35-23.2-3.21-26.21,9.14-3.84,15.72,1.84,25.6,7.33,31.14h-3.78c-5.34-6.3-10-16.52-6.26-31.79,3.49-14.31,16.33-14.79,28.92-11.32Zm0,12.27c-21.81-.89-21.41,20.92,0,22.69v-2.69c-17.59-1.52-17-17.73,0-17.33v-2.67Zm-63,30.84c-.7-10.1,5.19-26-.92-34-8.15-10.65-27.9-6.08-37.13,1-6.47,4.95-16.82,6.44-25.09,6.75v2.78c8.71-.33,19.76-1.93,26.79-7.31,7.93-6.06,26.12-10.76,33.21-1.49,5,6.53-.18,23.41.28,32.34Zm-9.16,0c3.14-7.2,3.7-17.09-15.57-18.78-16.58-1.45-26.56,9.21-32.11,18.78h3.25c5.29-8.49,14.29-17.25,28.62-16,16.32,1.43,15.41,10,12.64,16Z"/></g><rect class="cls-22" x="361" y="81.5" width="125" height="168" rx="6.29"/><rect class="cls-5" x="361" y="46.5" width="125" height="30" rx="14.86"/><rect class="cls-20" x="409.36" y="96.37" width="38.53" height="9.76" rx="4.88"/><rect class="cls-9" x="452.09" y="96.37" width="24.21" height="9.76" rx="4.88"/><rect class="cls-9" x="409.36" y="112.73" width="51.38" height="9.76" rx="4.88"/><rect class="cls-20" x="370.7" y="94.85" width="29.15" height="29.15" rx="7.9"/><path class="cls-23" d="M414.24,133.75h57.18a4.9,4.9,0,0,1,4.88,4.88h0a4.9,4.9,0,0,1-4.88,4.88H414.24a4.89,4.89,0,0,1-4.88-4.88h0A4.89,4.89,0,0,1,414.24,133.75Z"/><rect class="cls-14" x="409.36" y="150.11" width="19.88" height="9.76" rx="4.88"/><rect class="cls-9" x="433.31" y="150.11" width="23.1" height="9.76" rx="4.88"/><rect class="cls-14" x="370.7" y="132.24" width="29.15" height="29.15" rx="7.9"/><rect class="cls-24" x="409.36" y="171.13" width="58.07" height="9.76" rx="4.88"/><rect class="cls-9" x="409.36" y="187.49" width="41.12" height="9.76" rx="4.88"/><rect class="cls-24" x="370.7" y="169.62" width="29.15" height="29.15" rx="7.9"/><rect class="cls-8" x="370.7" y="207" width="29.15" height="29.15" rx="7.9"/><rect class="cls-9" x="409.36" y="207" width="38.53" height="9.76" rx="4.88"/><rect class="cls-8" x="452.09" y="207" width="24.21" height="9.76" rx="4.88"/><rect class="cls-8" x="409.36" y="223.36" width="51.38" height="9.76" rx="4.88"/><path class="cls-16" d="M31.25,255.12h69.11l0,0h0l0,0h.27l0,0h0l0,0h0l.05,0h0l0,0h0l0,0h0l0,0h0l0,0h0l0,0h0l0,0h0l0,0h0l0,0h0l0,0h0l0,0,0,0h0l0,0v0l0,0h0l0,0,0,0v0l0,0v0l0,0h0l0,0h0l0,0h0l0,0h0l.05.09,0,0h0a1,1,0,0,1,.07.15h0l0,0v0l0,0h0l0,0h0l0,.05h0v.05h0l0,0h0v0h0V257h0c0,.1,0,.21,0,.32v41.93h0v0h0v.08h0v.15h0v.08h0v0h0v.1h0v0h0v0h0v.1h0l0,0h0l0,0v.07h0v0h0l0,0h0l0,0v0l0,0,0,0h0l0,0v0l0,0,0,0h0l0,0h0l0,0h0l0,0v0l0,0,0,0,0,0h0l0,0h0l0,0h0l0,0h0l0,0h0l0,0h0l0,0h0l0,0h0l0,0,0,0h0l0,0h0l0,0h0l0,0h-.07l0,0h0l0,0h-.07l0,0h-.12a2.14,2.14,0,0,1-.72.13H31.25a2.29,2.29,0,0,1-.87-.18l0,0h-.11l0,0h0l0,0h0l0,0h0l0,0h0l0,0,0,0h0l0,0h0l0,0h0l0,0h0l0,0,0,0h0l0,0h0l0,0,0,0,0,0h0l0,0h0l0,0h0l0,0,0,0h0l0,0h0l0,0h0l0,0v0h0l0,0h0l-.08-.14h0l0,0h0l0-.05h0l0,0h0l0,0h0l0,0v0l0,0h0l0,0h0v-.1h0v0h0v-.1h0v0h0v-.11h0v0h0v-.17h0v0h0v-.06h0V257.3c0-.11,0-.22,0-.32h0v-.09h0v-.09h0v-.08h0v-.05l0,0h0l0-.1h0l0,0h0l0,0h0l0,0h0v-.12l0,0h0l0,0h0l0,0h0l0,0h0l0,0h0l0,0h0l0,0,.06-.07h0v0l0,0,0,0h0l0,0v0l.06-.06,0,0h0l0,0h0l0,0h0l0,0,.06-.05H30l0,0h0l0,0h0l0,0h0l0,0h0l.05,0h0l0,0h0l0,0h.09l0,0h.14l0,0h0l.05,0h.14l.15,0h.26Z"/><path class="cls-25" d="M23.86,250.4l68.3-6.15a2.19,2.19,0,0,1,2.37,2l3.75,41.64a2.18,2.18,0,0,1-2,2.37L28,296.4a2.19,2.19,0,0,1-2.37-2l-3.76-41.65A2.21,2.21,0,0,1,23.86,250.4Z"/><path class="cls-16" d="M23.86,250.4l32.66,21a5.88,5.88,0,0,0,7.27-.66l28.37-26.51h0a2.19,2.19,0,0,1,2.32,1.66L82.22,257.36a5.92,5.92,0,0,0-.65,7.95L98.2,287l.08.9A2.18,2.18,0,0,1,97,290.05l-16.8-21.9a5.95,5.95,0,0,0-8.77-.72l-7.34,6.86a5.89,5.89,0,0,1-7.27.66l-10.41-6.7a5.94,5.94,0,0,0-8.7,2.71L27.17,296.31a2.2,2.2,0,0,1-1.53-1.89L25.51,293l10.65-25.55a5.91,5.91,0,0,0-2.27-7.28l-12-7.73A2.2,2.2,0,0,1,23.86,250.4Z"/><path class="cls-11" d="M56.8,255s-19.13-15-12-23.07,13.2,5.76,15.41,13.52S61,257.67,56.8,255Z"/><path class="cls-11" d="M65.82,246.63s-2.33-15.39,6.25-14.27.75,12.4-1.44,15.48S65.85,248.33,65.82,246.63Z"/><rect class="cls-4" x="115.81" y="153.24" width="234.19" height="29.02" rx="14.51"/><rect class="cls-14" x="119.49" y="156.31" width="179.01" height="22.89" rx="11.44"/><path class="cls-10" d="M126.39,178.26l6.8-21.95h-2.26a11.45,11.45,0,0,0-4.54,21.95Z"/><polygon class="cls-10" points="155.57 156.31 148.48 179.2 170.86 179.2 177.95 156.31 155.57 156.31"/><polygon class="cls-10" points="200.32 156.31 193.23 179.2 215.61 179.2 222.7 156.31 200.32 156.31"/><polygon class="cls-10" points="245.08 156.31 237.99 179.2 260.36 179.2 267.45 156.31 245.08 156.31"/><path class="cls-10" d="M289.73,156.63l-7,22.57h4.32a11.44,11.44,0,0,0,2.67-22.57Z"/><path class="cls-26" d="M284.5,140.32l3.62,3.62a2.7,2.7,0,0,0,3.81,0l3.62-3.62a2.69,2.69,0,0,0-1.91-4.59h-7.23a2.69,2.69,0,0,0-1.91,4.59Z"/><path class="cls-11" d="M121.67,190.78a1.77,1.77,0,0,1,0-3.53H344.14a1.77,1.77,0,1,1,0,3.53Z"/><path class="cls-27" d="M262,202.66l6-6a4.47,4.47,0,0,1,6.31,0l6,6a4.46,4.46,0,0,1-3.15,7.62h-12a4.47,4.47,0,0,1-3.16-7.62Z"/><path class="cls-16" d="M206.31,215.83H245.8a1.31,1.31,0,0,1,1.31,1.3V334.34a1.31,1.31,0,0,1-1.31,1.31h-115a1.31,1.31,0,0,1-1.31-1.31V215.83Z"/><rect class="cls-4" x="186.51" y="230.41" width="28.72" height="4.53" rx="2.27"/><rect class="cls-4" x="196.06" y="271.22" width="25.56" height="7.21" rx="3.61"/><rect class="cls-28" x="159.51" y="200.74" width="38.47" height="15.11" rx="1.44"/><path class="cls-16" d="M159.63,208.68h77.84a1.31,1.31,0,0,1,1.31,1.31V327.2a1.31,1.31,0,0,1-1.31,1.31h-115a1.31,1.31,0,0,1-1.31-1.31V202.29a1.45,1.45,0,0,1,1.45-1.44h35.58a1.45,1.45,0,0,1,1.45,1.44Z"/><rect class="cls-14" x="141.31" y="233.1" width="23.08" height="4.4" rx="2.2"/><rect class="cls-28" x="166.45" y="233.1" width="15.87" height="4.4" rx="2.2"/><rect class="cls-28" x="184.38" y="233.1" width="21.78" height="4.4" rx="2.2"/><rect class="cls-8" x="132.65" y="222.93" width="21.78" height="4.4" rx="2.2"/><path class="cls-11" d="M213,232.66l-3,5.13-.39-.23,3-5.13.39.23Zm2.47,0-.4-.23-3,5.13.4.23Z"/><rect class="cls-4" x="218.53" y="233.1" width="9.35" height="4.4" rx="2.2"/><rect class="cls-28" x="141.31" y="242.58" width="4.4" height="4.4" rx="2.2"/><polygon class="cls-23" points="151.41 242.58 153.6 246.97 149.21 246.97 151.41 242.58"/><rect class="cls-28" x="157.53" y="242.58" width="14.24" height="4.4" rx="2.2"/><rect class="cls-14" x="141.31" y="253.16" width="35.19" height="4.4" rx="2.2"/><rect class="cls-14" x="178.75" y="253.16" width="15.87" height="4.4" rx="2.2"/><rect class="cls-14" x="132.65" y="263.47" width="21.78" height="4.4" rx="2.2"/><polygon class="cls-11" points="144.65 278.83 142.68 278.83 142.68 284.19 144.65 284.19 144.65 285.49 141.39 285.49 141.39 277.53 144.65 277.53 144.65 278.83"/><rect class="cls-28" x="147.04" y="279.31" width="21.78" height="4.4" rx="2.2"/><rect class="cls-8" x="171.21" y="279.31" width="10.89" height="4.4" rx="2.2"/><polygon class="cls-11" points="184.5 277.53 187.76 277.53 187.76 285.49 184.5 285.49 184.5 284.19 186.46 284.19 186.46 278.83 184.5 278.83 184.5 277.53"/><rect class="cls-14" x="157.19" y="294.05" width="4.4" height="4.4" rx="2.2"/><polygon class="cls-26" points="151.41 294.05 153.6 298.45 149.21 298.45 151.41 294.05"/><polygon class="cls-23" points="169.98 294.77 168.5 296.25 169.98 297.73 169.06 298.65 167.58 297.17 166.1 298.65 165.18 297.73 166.66 296.25 165.18 294.77 166.1 293.85 167.58 295.33 169.06 293.85 169.98 294.77"/><path class="cls-11" d="M184.94,293.8l-3,5.13-.39-.23,3-5.13.39.23Zm2.47,0-.4-.23-3,5.13.4.23Z"/><rect class="cls-4" x="189.1" y="294.05" width="13.95" height="4.4" rx="2.2"/><rect class="cls-4" x="206.82" y="294.05" width="9.55" height="4.4" rx="2.2"/><rect class="cls-8" x="132.65" y="305.93" width="14.82" height="4.4" rx="2.2"/><path class="cls-23" d="M160.21,208.11h77.26a1.88,1.88,0,0,1,1.88,1.88V327.2a1.88,1.88,0,0,1-1.88,1.88h-115a1.89,1.89,0,0,1-1.89-1.88V202.29a2,2,0,0,1,.6-1.42,2,2,0,0,1,1.43-.6h35.58a2,2,0,0,1,1.43.6h0a2,2,0,0,1,.6,1.42v5.82Zm77.26,1.15H159.05v-7a.85.85,0,0,0-.87-.86H122.6a.85.85,0,0,0-.87.86V327.2a.72.72,0,0,0,.21.51.77.77,0,0,0,.52.22h115a.73.73,0,0,0,.51-.22.69.69,0,0,0,.22-.51V210a.75.75,0,0,0-.73-.73Z"/><circle class="cls-14" cx="214.11" cy="328.2" r="14.61" transform="translate(-49.81 38.54) rotate(-9.22)"/><path class="cls-16" d="M214.11,341.61A13.42,13.42,0,1,0,200.7,328.2,13.44,13.44,0,0,0,214.11,341.61Z"/><path class="cls-29" d="M208.65,335.17,206,336.73l.56,1,3-1.71a.63.63,0,0,1,.74.07,5.8,5.8,0,0,0,3.87,1.48h0a5.83,5.83,0,0,0,3.88-1.48.63.63,0,0,1,.74-.07l3,1.71.57-1-2.69-1.56a.64.64,0,0,1-.25-.84,5.83,5.83,0,0,0,.6-2,.65.65,0,0,1,.63-.57h3.38v-1.12h-3.34A.64.64,0,0,1,220,330v-1.33a5.62,5.62,0,0,0-.11-1.1.62.62,0,0,1,.31-.67l2.05-1.19-.56-1-1.75,1a.64.64,0,0,1-.86-.21,5.85,5.85,0,0,0-4.93-2.72h0a5.86,5.86,0,0,0-4.93,2.72.63.63,0,0,1-.85.21l-1.75-1-.56,1,2,1.19a.6.6,0,0,1,.3.67,6.52,6.52,0,0,0-.1,1.1V330a.64.64,0,0,1-.64.64h-3.34v1.12h3.38a.65.65,0,0,1,.64.57,5.6,5.6,0,0,0,.59,2A.62.62,0,0,1,208.65,335.17Z"/><path class="cls-16" d="M213.74,337.53h.75v-10.1h-.75Z"/><path class="cls-29" d="M214.11,326.33a3.82,3.82,0,1,0-3.81-3.81A3.82,3.82,0,0,0,214.11,326.33Z"/><path class="cls-23" d="M217.62,324a3.82,3.82,0,0,1-7,0,5.82,5.82,0,0,1,3.51-1.18h0A5.79,5.79,0,0,1,217.62,324Z"/><path class="cls-26" d="M225.71,315.39a2.24,2.24,0,1,0-2.23-2.23A2.23,2.23,0,0,0,225.71,315.39Z"/><path class="cls-26" d="M234.89,267.19h11.47a16.37,16.37,0,0,0,8.25-2.13h0a16.39,16.39,0,0,0,6-6.08l13.76-23.84a20.69,20.69,0,0,1,7.59-7.67h0a20.67,20.67,0,0,1,10.44-2.74h29.19a16.37,16.37,0,0,0,8.25-2.13h0a16.39,16.39,0,0,0,6-6.08l19.62-34a20.6,20.6,0,0,1,7.58-7.67h0a20.63,20.63,0,0,1,10.43-2.74h62.88a16.37,16.37,0,0,0,8.25-2.13h0a16.54,16.54,0,0,0,6-6.08h0l1.94-3.36a5.65,5.65,0,1,1,4.5,2.23,5.37,5.37,0,0,1-.7,0l-1.94,3.36h0a20.67,20.67,0,0,1-7.58,7.67h0a20.67,20.67,0,0,1-10.44,2.74H373.44a16.4,16.4,0,0,0-8.25,2.13h0a16.49,16.49,0,0,0-6,6.08l-19.61,34a20.67,20.67,0,0,1-7.58,7.67h0a20.67,20.67,0,0,1-10.44,2.74H292.38a16.4,16.4,0,0,0-8.25,2.13h0a16.54,16.54,0,0,0-6,6.08l-13.76,23.84a20.77,20.77,0,0,1-7.58,7.68h0a20.76,20.76,0,0,1-10.44,2.73H234.79a5.64,5.64,0,1,1,.1-4.4Z"/><polygon class="cls-26" points="153.19 193.68 153.19 118.66 143.7 128.16 139.43 123.89 156.21 107.1 173 123.89 168.73 128.16 159.23 118.66 159.23 193.68 153.19 193.68"/><path class="cls-16" d="M435,19.76V70.37l-.28-.21-.07,0-.54-.41-.05,0-.55-.43,0,0c-.38-.3-.74-.62-1.1-.94l0,0-.53-.48,0,0c-.35-.33-.7-.67-1-1l0,0c-.16-.17-.33-.34-.49-.52l0,0-.49-.54h0l-.46-.54,0,0c-.15-.18-.29-.36-.44-.53l0-.06c-.15-.18-.29-.37-.43-.56h0l-.42-.56,0-.05-.39-.55-.06-.09-.36-.54h0A31.12,31.12,0,0,1,435,19.76Zm-5.27,45.83-.46-.54Z"/><path class="cls-17" d="M451.62,4.45a31.13,31.13,0,1,1-33.09,29A31.12,31.12,0,0,1,451.62,4.45Z"/><path class="cls-30" d="M455.64,8A5,5,0,1,1,452,9.21,5,5,0,0,1,455.64,8Zm-22,21.16a7.44,7.44,0,0,1,5.1,2.52,7.43,7.43,0,0,1-11.17,9.8,7.44,7.44,0,0,1,6.07-12.32Zm4.16,3.35A6.19,6.19,0,1,0,439.35,37a6.14,6.14,0,0,0-1.51-4.47Zm6-25.77a3.22,3.22,0,0,1,3,3.43,3.19,3.19,0,0,1-1.09,2.22,3.23,3.23,0,0,1-5.35-2.64,3.23,3.23,0,0,1,3.43-3Zm1.51,1.72a2.25,2.25,0,0,0-1.57-.78,2.32,2.32,0,0,0-1.66.56,2.3,2.3,0,0,0-.21,3.23,2.33,2.33,0,0,0,1.57.78,2.29,2.29,0,0,0,2.43-2.14,2.23,2.23,0,0,0-.56-1.65Zm10.27.48a4.13,4.13,0,1,0,3.85,4.38A4.13,4.13,0,0,0,455.57,8.91Z"/><path class="cls-30" d="M472.75,14.72a31.07,31.07,0,0,1,7.59,15.89l.13.94a30.57,30.57,0,0,1,.18,6,30.92,30.92,0,0,1-.81,5.31l-.23.92a31.14,31.14,0,0,1-28.28,22.82c0-.22.05-.43.07-.65a7.34,7.34,0,0,0-14.5-2A31.2,31.2,0,0,1,423.51,52.5c13.24,1.48,18.35-.94,23.2-10.86,5.14-10.51,14.56,2.32,18.67-14.37,1.93-7.89,4.84-11.23,7.37-12.55Zm-22.39,51.9a6,6,0,0,0,.1-.74,6.39,6.39,0,0,0-12.67-1.56,31.33,31.33,0,0,0,9.77,2.25C448.5,66.63,449.44,66.65,450.36,66.62Z"/><path class="cls-11" d="M459.8,39.69a3,3,0,1,1-3.16,2.77A3,3,0,0,1,459.8,39.69Z"/><path class="cls-11" d="M327.05,258.22c0,2.72-2.54,4.74-5.68,4.74s-4.31-2.48-5.68-4.93c-1.51-2.7,2.08-4.92,5.68-4.92C324.51,253.1,327.05,255.5,327.05,258.22Z"/><path class="cls-4" d="M331,263.88a2.87,2.87,0,0,0-2.46,1h0a.64.64,0,0,0-.32.24,2.58,2.58,0,0,0,1.18,3.74,3.25,3.25,0,0,0,4.18-1.53C334.17,265.78,332.78,264.07,331,263.88Zm.91,1.81h0a.76.76,0,0,1,.08.11.91.91,0,0,1,.11.16,1.17,1.17,0,0,0,.05.11c0,.05,0,.11.05.16a1.48,1.48,0,0,0-.3-.26,1.35,1.35,0,0,0-.15-.44l0,0Zm-.31-.28,0,0h0Zm.65,1.29h0s0,0,0,0ZM330,265.35h0l0,0Zm-.25.21.15-.14.09-.06a2.13,2.13,0,0,0-.3.3h0S329.81,265.47,329.72,265.56Z"/><path class="cls-4" d="M316.69,266.86a1.23,1.23,0,0,0-1-1,2.7,2.7,0,0,0-.84-.69,1.09,1.09,0,0,0-.12-.46,1.91,1.91,0,0,0-2.09-.65,2.26,2.26,0,0,0-1.23,3.5,3.52,3.52,0,0,0,4.6.49A1.44,1.44,0,0,0,316.69,266.86Zm-4.56-.28s0,0,0-.06,0,0,0-.06v-.06l.25,0v.1l0,0a2.13,2.13,0,0,0-.16.25Zm1,.78h0Zm1.17.4.05-.06.45-.05a3.72,3.72,0,0,1-.48.11Z"/></svg>