<?xml version="1.0" encoding="utf-8"?>
<!-- Generator: Adobe Illustrator 24.3.0, SVG Export Plug-In . SVG Version: 6.00 Build 0)  -->
<svg version="1.1" id="Layer_1" xmlns="http://www.w3.org/2000/svg" xmlns:xlink="http://www.w3.org/1999/xlink" x="0px" y="0px"
	 viewBox="0 0 311 304" enable-background="new 0 0 311 304" xml:space="preserve">
<g>
	<path d="M174.51,94.043c-4.926-2.812-8.85-6.645-11.77-11.501c-2.922-4.857-4.381-10.138-4.381-15.847V41.903
		c0-0.681,0.239-1.234,0.719-1.661c0.478-0.426,1.024-0.639,1.635-0.639h12.293c0.697,0,1.263,0.213,1.7,0.639
		c0.436,0.427,0.654,0.98,0.654,1.661v24.792c0,4.261,1.481,7.86,4.447,10.799c2.963,2.939,6.582,4.409,10.854,4.409
		c3.313,0,6.364-0.681,9.155-2.045c2.789-1.361,5.013-3.215,6.67-5.559c1.655-2.342,2.485-4.875,2.485-7.604V9.955
		c0-0.595,0.24-1.128,0.72-1.597c0.478-0.467,1.066-0.703,1.765-0.703h12.032c0.697,0,1.285,0.235,1.765,0.703
		c0.478,0.469,0.719,1.002,0.719,1.597v56.74c0,5.794-1.504,11.098-4.512,15.911c-3.008,4.814-7.193,8.625-12.555,11.437
		c-5.363,2.811-11.444,4.216-18.245,4.216C184.819,98.259,179.435,96.854,174.51,94.043z"/>
	<path d="M159.077,22.671c-0.48-0.467-0.719-1-0.719-1.598V9.955c0-0.681,0.239-1.234,0.719-1.661
		c0.478-0.426,1.024-0.639,1.635-0.639h12.293c0.697,0,1.263,0.213,1.7,0.639c0.436,0.427,0.654,0.98,0.654,1.661v11.118
		c0,0.597-0.219,1.13-0.654,1.598c-0.437,0.469-1.003,0.703-1.7,0.703h-12.293C160.101,23.373,159.556,23.14,159.077,22.671z"/>
	<g>
		<path d="M240.685,82.132c-0.472,0.473-0.707,1.053-0.707,1.744v11.11c0,0.688,0.235,1.247,0.707,1.679
			c0.47,0.43,1.007,0.646,1.608,0.646h59.68c0.686,0,1.264-0.238,1.736-0.71c0.47-0.474,0.707-1.013,0.707-1.614v-11.11
			c0-0.603-0.237-1.162-0.707-1.679c-0.472-0.517-1.051-0.775-1.736-0.775h-59.68C241.692,81.421,241.156,81.657,240.685,82.132z"/>
		<path d="M240.685,7.596c-0.472,0.473-0.707,1.011-0.707,1.615v59.68c0,0.689,0.235,1.248,0.707,1.68
			c0.47,0.43,1.007,0.646,1.608,0.646h10.933c0.685,0,1.242-0.216,1.672-0.646c0.428-0.432,0.643-0.991,0.643-1.68v-9.3
			c0-1.637,1.114-2.455,3.344-2.455h32.413c0.599,0,1.113-0.194,1.544-0.581c0.428-0.388,0.643-0.884,0.643-1.485V43.96
			c0-0.604-0.215-1.098-0.643-1.485c-0.43-0.387-0.945-0.581-1.544-0.581H258.5c-1.974,0-2.959-0.904-2.959-2.713V25.1
			c0-0.604,0.257-1.163,0.772-1.68c0.515-0.517,1.071-0.774,1.672-0.774h44.246c0.686,0,1.242-0.217,1.672-0.646
			c0.428-0.432,0.643-0.991,0.643-1.68V9.211c0-0.604-0.215-1.142-0.643-1.615c-0.43-0.474-0.986-0.71-1.672-0.71h-59.938
			C241.692,6.886,241.156,7.122,240.685,7.596z"/>
	</g>
	<path d="M21.688,294.555c-0.441,0.493-0.983,0.739-1.628,0.739H9.689c-0.642,0-1.164-0.246-1.567-0.739
		c-0.402-0.49-0.603-1.051-0.603-1.677v-62.283c0-0.714,0.222-1.318,0.663-1.811c0.443-0.49,0.946-0.739,1.507-0.739H20.06
		c0.563,0,1.085,0.248,1.567,0.739c0.482,0.493,0.724,1.097,0.724,1.811v62.283C22.351,293.504,22.131,294.064,21.688,294.555z"/>
	<path d="M91.27,294.555c-0.442,0.493-0.944,0.739-1.508,0.739H34.049c-0.643,0-1.165-0.246-1.568-0.739
		c-0.401-0.49-0.603-1.051-0.603-1.677v-11.41c0-0.715,0.202-1.296,0.603-1.744c0.403-0.448,0.925-0.671,1.568-0.671h8.682
		c1.529,0,2.292-1.162,2.292-3.491v-33.825c0-0.625,0.181-1.162,0.542-1.611c0.362-0.446,0.825-0.67,1.387-0.67h10.371
		c0.564,0,1.025,0.224,1.387,0.67c0.361,0.449,0.543,0.986,0.543,1.611v34.229c0,2.058,0.844,3.087,2.533,3.087H74.93
		c0.564,0,1.086-0.269,1.568-0.806s0.723-1.118,0.723-1.744v-46.175c0-0.715,0.202-1.296,0.603-1.745
		c0.403-0.446,0.925-0.67,1.568-0.67h10.371c0.564,0,1.066,0.224,1.508,0.67c0.443,0.449,0.663,1.03,0.663,1.745v62.551
		C91.933,293.504,91.713,294.064,91.27,294.555z"/>
	<path d="M257.138,239.056H144.787v-3.311v-0.881v-2.642v-40.279v-0.881v-2.642c0-1.209-0.537-2.292-1.605-3.246
		c-1.072-0.948-2.289-1.428-3.649-1.428h-29.771c-1.363,0-2.581,0.479-3.647,1.428c-0.583,0.519-1.002,1.078-1.267,1.673v1.756
		c-0.206,0.403-0.323,0.83-0.323,1.288v101.822c0,0.779,0.3,1.478,0.892,2.095c0.537,0.563,1.201,0.855,1.979,0.909
		c0.734,0.368,1.519,0.573,2.367,0.573h29.771c1.556,0,2.819-0.473,3.795-1.426c0.971-0.951,1.459-2.032,1.459-3.246v-0.881v-2.642
		v-14.258h112.351c1.936,0,2.901-1.008,2.901-3.027v-27.728c0-0.775-0.258-1.476-0.781-2.098
		C258.738,239.37,258.03,239.056,257.138,239.056z"/>
	<line x1="158.646" y1="50.088" x2="162.073" y2="50.088"/>
	<g>
		<path d="M28.43,198.784c-0.574-0.377-1.279-0.564-2.113-0.564H12.173h-1.342c-0.834,0-1.538,0.187-2.113,0.564
			c-0.437,0.287-0.706,0.64-0.81,1.06H7.858v0.407v12.421v0.407h0.051c0.104,0.42,0.373,0.773,0.81,1.06
			c0.574,0.377,1.279,0.564,2.113,0.564h1.342h14.144c0.834,0,1.538-0.187,2.113-0.564c0.437-0.287,0.706-0.64,0.81-1.06h0.051
			v-0.407V200.25v-0.407H29.24C29.136,199.424,28.867,199.07,28.43,198.784z"/>
		<path d="M90.292,136.713c-0.575-0.412-1.279-0.62-2.113-0.62H71.598c-0.73,0-1.383,0.208-1.956,0.62
			c-0.573,0.414-0.86,0.922-0.86,1.522l0.157,43.985c0,1.28-0.262,1.918-0.783,1.918c-0.626,0-1.408-0.638-2.346-1.918
			L27.953,136.77c-0.523-0.451-1.149-0.677-1.877-0.677H12.173h-1.5c-0.73,0-1.383,0.208-1.955,0.62
			c-0.573,0.414-0.86,0.922-0.86,1.522l0.014,3.8c-0.005,0.012-0.008,0.024-0.014,0.036v31.787v12.828v0.082h0.01
			c0.026,0.564,0.306,1.027,0.851,1.385c0.574,0.377,1.279,0.564,2.113,0.564h1.342h14.144c0.834,0,1.538-0.187,2.113-0.564
			c0.544-0.357,0.824-0.82,0.851-1.385h0.01v-0.082v-12.828v-6.817c0.22,0.13,0.5,0.334,0.853,0.63
			c4.693,5.413,11.654,13.272,20.884,23.572c9.229,10.301,15.878,17.744,19.944,22.33c0.834,0.752,1.668,1.128,2.503,1.128H88.18
			c0.834,0,1.538-0.187,2.113-0.564c0.571-0.375,0.861-0.863,0.861-1.466v-74.435C91.153,137.635,90.864,137.128,90.292,136.713z"/>
	</g>
	<path d="M143.445,8.2c-1.081-0.873-2.308-1.314-3.68-1.314h-30.026c-1.375,0-2.603,0.441-3.679,1.314
		c-1.081,0.877-1.62,1.874-1.62,2.986v63.778c0,1.117-0.491,2.113-1.471,2.986c-0.985,0.877-2.259,1.314-3.826,1.314H62.345
		c-1.375,0-2.603,0.399-3.68,1.195c-1.08,0.798-1.619,1.832-1.619,3.105v20.304c0,1.117,0.539,2.114,1.619,2.986
		c1.077,0.877,2.305,1.315,3.68,1.315h36.797c1.568,0,2.842,0.398,3.826,1.193c0.98,0.799,1.471,1.833,1.471,3.106v57.568
		c0,1.117,0.539,2.111,1.62,2.986c1.075,0.877,2.304,1.312,3.679,1.312h30.026c1.569,0,2.843-0.435,3.828-1.312
		c0.979-0.875,1.471-1.87,1.471-2.986V11.186C145.064,10.074,144.522,9.077,143.445,8.2z"/>
	<path d="M40.329,6.886H11.161c-1.122,0-2.103,0.367-2.945,1.102c-0.841,0.734-1.263,1.591-1.263,2.57v89.727v2.79v14.82
		c0,1.018,0.422,1.908,1.263,2.673c0.842,0.763,1.823,1.143,2.945,1.143h29.168c1.122,0,2.103-0.38,2.945-1.143
		c0.841-0.765,1.261-1.655,1.261-2.673v-14.82v-2.79V10.558c0-0.979-0.42-1.836-1.261-2.57C42.433,7.253,41.451,6.886,40.329,6.886z
		"/>
	<path d="M304.953,111.603c0-1.423-0.413-2.624-1.232-3.604c-0.824-0.977-1.809-1.468-2.956-1.468h-24.633h-0.247
		c-0.824,0-1.478,0.313-1.971,0.934c-0.493,0.625-0.985,1.381-1.478,2.269l-37.196,66.219c-0.165,0.359-0.577,0.981-1.231,1.87
		c-0.659,0.893-1.563,1.334-2.71,1.334h-0.246c-1.151,0-2.094-0.354-2.834-1.068c-0.738-0.709-1.193-1.243-1.355-1.602
		l-37.443-67.019c-0.33-0.709-0.862-1.377-1.6-2.002c-0.74-0.622-1.355-0.934-1.847-0.934h-24.634c-1.15,0-2.178,0.492-3.078,1.468
		c-0.905,0.981-1.355,2.181-1.355,3.604v103.333c0,1.248,0.45,2.363,1.355,3.338c0.9,0.981,1.928,1.47,3.078,1.47h24.142
		c1.147,0,2.132-0.443,2.955-1.336c0.82-0.888,1.232-2.044,1.232-3.472v-33.109c0-1.602,0.328-2.403,0.985-2.403
		c0.819,0,1.559,0.8,2.216,2.403l26.851,40.854c1.313,1.781,2.501,2.937,3.572,3.472c1.066,0.533,3.078,0.8,6.035,0.8h4.189
		c2.462,0,4.225-0.355,5.296-1.068c1.066-0.71,2.421-2.224,4.064-4.54c2.791-4.092,7.182-10.681,13.179-19.758
		c5.993-9.079,10.304-15.754,12.932-20.026c0.985-1.243,1.725-1.87,2.218-1.87c0.654,0,0.985,0.802,0.985,2.404v45.859v59.878v5.561
		c0,1.426,0.407,2.581,1.231,3.472c0.82,0.893,1.806,1.336,2.956,1.336h24.388c1.147,0,2.132-0.443,2.956-1.336
		c0.819-0.891,1.233-2.046,1.233-3.472v-5.561v-59.878V111.603z"/>
</g>
</svg>
