<svg xmlns="http://www.w3.org/2000/svg" viewBox="0 0 1479.91 129.36">
  <defs>
    <style>
      .bd1b4e62-5669-4a77-84fa-b10cb4abb77a {
        fill: #3bfc43;
      }
    </style>
  </defs>
  <g id="b76f0d13-1987-4e5e-9ec6-dde3f98bfc40" data-name="Layer 2">
    <g id="aacf0f0e-b42f-498a-80f7-dd6794ffb37d" data-name="Layer 3">
      <path class="bd1b4e62-5669-4a77-84fa-b10cb4abb77a" d="M577,74.17c-13.68-19.49-30.47-38.44-54-45.58-10.6-3.22-21.86-3.64-32.46-.22-8.36,2.69-15.88,7.5-22.67,13C454.23,52.44,443,66.23,429.05,77a71.41,71.41,0,0,1-22,12c-10.42,3.27-21.51,3-32,.33-23.23-5.92-41.76-21.7-61.42-34.51-9.7-6.32-19.93-12.11-31.1-15.36a69.16,69.16,0,0,0-35-.82c-46.65,10.76-76.07,54.92-121.32,68.94a76.82,76.82,0,0,1-32.92,3.07c-12.54-1.68-24.63-6.18-37.4-6.1C35,104.67,14.47,114.46,0,129.36H1479.91q-3-5.39-6.28-10.6a228.88,228.88,0,0,0-33.52-41.63c-11.55-11.21-26.23-20-42.33-22.35-8.65-1.28-16.94.18-25.51,1.31-7.93,1-16.08,1.07-23.1-3.26-10.61-6.55-15.56-18.82-24.35-27.24a24.62,24.62,0,0,0-19.24-7.22c-8.23.61-16,4.63-22.68,9.26-13.06,9.06-24.4,20.93-41,22.78s-32.73-5.19-49.24-6.09a49.51,49.51,0,0,0-23.25,4.17A79.8,79.8,0,0,0,1150.1,61.4c-12,10.45-22,23-34.57,32.88-12.31,9.65-27.08,17-43.11,14.54a1.19,1.19,0,0,1-1.08-1.3c-1-.16-1.95-.35-2.92-.59-25.05-6.3-35.73-31.66-48.36-51.36-6.71-10.48-15.09-20.22-26.65-25.48a32.57,32.57,0,0,0-17.44-3,38.13,38.13,0,0,0-14.28,5.34c-15.38,9-31.27,26.78-50.41,16.22-8.37-4.62-14.67-13.06-23.86-16.2-9.94-3.4-18.2,3.16-25.67,8.85S845.84,52.45,836,49.71c-10.7-3-17.67-12.85-22.87-22C807.42,17.65,801.83,6.33,790.31,2,779.83-2,767.93.52,758.24,5.48c-22.3,11.4-32.59,36-47.89,54.42-11.85,14.3-27.74,24.74-44.87,31.67-22.78,9.21-57.05,14.39-77.33-2.17a1.43,1.43,0,0,1-1.28-.68l-.69-1a41.17,41.17,0,0,1-8.8-11.87,1.47,1.47,0,0,1-.06-1.24Z"/>
    </g>
  </g>
</svg>
